 <svg xmlns="http://www.w3.org/2000/svg" width="100%" height="77" viewBox="0 0 1920 77" fill="none">
        <path fill-rule="evenodd" clip-rule="evenodd"
            d="M0 8.00515L64 16.6295C128 25.2539 256 42.5026 384 42.5026C512 42.5026 640 25.2539 768 13.7547C896 2.25558 1024 -3.49399 1152 2.25558C1280 8.00515 1408 25.2539 1536 33.8782C1664 42.5026 1792 42.5026 1856 42.5026H1920V77H1856C1792 77 1664 77 1536 77C1408 77 1280 77 1152 77C1024 77 896 77 768 77C640 77 512 77 384 77C256 77 128 77 64 77H0V8.00515Z"
            fill="#FFF7F4" />
    </svg>