<svg width="60" height="50" viewBox="0 0 70 60" fill="none" xmlns="http://www.w3.org/2000/svg">
<path fill-rule="evenodd" clip-rule="evenodd" d="M34.3339 0.428198L33.9057 0.85622V5.83517C33.9057 10.5815 33.9219 10.8302 34.2546 11.1628C34.4483 11.3566 34.8359 11.5116 35.1266 11.5116C35.4174 11.5116 35.805 11.3566 35.9987 11.1628C36.3314 10.8302 36.3476 10.5815 36.3476 5.83517V0.85622L35.9194 0.428198C35.6839 0.192733 35.3272 0 35.1266 0C34.9261 0 34.5694 0.192733 34.3339 0.428198ZM20.9386 5.90041C20.7798 6.07587 20.6499 6.4493 20.6499 6.73046C20.6499 7.16337 21.1902 7.7782 24.1819 10.7489C26.1244 12.678 27.8518 14.3037 28.0207 14.3616C28.9044 14.6651 29.7586 13.6687 29.3858 12.7688C29.2712 12.4922 27.6664 10.762 25.8193 8.92378C22.7274 5.84668 22.4121 5.5814 21.8441 5.5814C21.4679 5.5814 21.1146 5.70593 20.9386 5.90041ZM44.434 8.92378C42.5869 10.762 40.982 12.4922 40.8675 12.7688C40.4717 13.7243 41.3766 14.6859 42.3214 14.3135C42.5373 14.2284 44.2639 12.5972 46.1586 10.6885C49.8493 6.97081 50.0096 6.72157 49.1998 5.96058C48.3305 5.14413 48.0675 5.30756 44.434 8.92378ZM33.9657 15.0072C32.9312 15.2119 31.9079 15.7769 31.0899 16.5949C29.0611 18.6237 28.8971 21.8363 30.7016 24.2022L31.1499 24.7899L29.2834 27.8747C28.2568 29.5713 27.3399 31.0378 27.2457 31.1337C27.1325 31.249 25.9997 30.1987 23.9058 28.0369C21.1505 25.1925 20.6675 24.7659 20.2036 24.7666C19.9102 24.7671 19.5416 24.8655 19.3848 24.9855C19.2279 25.1055 18.3422 26.9302 17.4164 29.0407C16.4907 31.1512 15.6713 32.9435 15.5953 33.0235C15.5194 33.1038 14.4085 32.4115 13.1267 31.4853L10.7961 29.8015L10.7954 28.113C10.7947 26.6199 10.741 26.3234 10.3304 25.5523C8.61223 22.3252 4.66147 21.5873 1.99583 23.9955C0.812227 25.0648 0.337459 26.1569 0.333448 27.8198C0.330657 28.998 0.405831 29.3693 0.816761 30.2062C1.67089 31.9453 3.19967 32.9625 5.20723 33.1271L6.42153 33.2267L10.3027 43.5174L14.1839 53.8081L14.1901 56.4759C14.1962 59.0719 14.2079 59.1553 14.6246 59.5718L15.0526 60H35.1266H55.2007L55.6287 59.5718C56.0454 59.1553 56.0571 59.0719 56.0632 56.4759L56.0694 53.8081L59.9506 43.5174L63.8318 33.2267L65.0461 33.1271C67.0536 32.9625 68.5824 31.9453 69.4365 30.2062C70.0871 28.8815 70.115 27.053 69.5056 25.6871C68.0473 22.4189 63.6275 21.5545 61.0564 24.0347C60.6884 24.3898 60.1782 25.0727 59.9229 25.5523C59.5126 26.3229 59.4586 26.6203 59.4579 28.1086L59.457 29.7928L57.1252 31.4798C55.8427 32.4077 54.7339 33.1019 54.661 33.0223C54.5883 32.943 53.7683 31.1512 52.8392 29.0407C51.9099 26.9302 51.0221 25.1055 50.8664 24.9855C50.7106 24.8655 50.3431 24.7666 50.0497 24.7655C49.5852 24.764 49.1056 25.1876 46.3468 28.0359C44.2569 30.1934 43.1192 31.2487 43.0069 31.1337C42.913 31.0378 41.9965 29.5713 40.9698 27.8747L39.1034 24.7899L39.5516 24.2022C41.3562 21.8363 41.1922 18.6237 39.1634 16.5949C38.3126 15.7441 37.4495 15.2847 36.2082 15.0215C35.1783 14.8033 35.0026 14.802 33.9657 15.0072ZM34.1169 17.4556C33.8016 17.5514 33.2366 17.9365 32.8616 18.3115C31.711 19.4621 31.5352 21.1415 32.4373 22.3652C33.2025 23.4035 33.6022 24.4231 33.5108 25.1042C33.4534 25.5326 31.9036 28.2415 28.7384 33.4465C23.9059 41.393 23.6605 41.7216 22.8082 41.3878C22.1881 41.145 9.06118 31.542 8.70066 31.0674C8.40502 30.6783 8.35339 30.3384 8.35339 28.7791C8.35339 27.1999 8.30106 26.8636 7.97298 26.3372C7.44031 25.4822 6.62089 25.0432 5.55659 25.0423C4.38816 25.0413 3.5288 25.5759 3.02473 26.6173C2.06246 28.6048 3.39537 30.6928 5.63211 30.7015C6.79862 30.706 7.94002 31.1761 8.36699 31.8276C8.53321 32.0815 10.3735 36.817 12.4562 42.3509L16.243 52.4128H35.1266H54.0102L57.797 42.3509C59.8798 36.817 61.7201 32.0815 61.8863 31.8276C62.3133 31.1761 63.4547 30.706 64.6212 30.7015C66.8579 30.6928 68.1908 28.6048 67.2286 26.6173C66.2182 24.5301 63.3307 24.4687 62.1833 26.5101C61.8211 27.1545 61.7938 27.361 61.8995 28.6552C62.0284 30.2315 61.9081 30.7308 61.2382 31.3997C60.6626 31.9744 47.9164 41.208 47.4504 41.3878C46.5929 41.7187 46.3451 41.3892 41.6792 33.7177C39.1916 29.6276 37.0374 25.9505 36.8921 25.5464C36.5659 24.6394 36.7812 23.7523 37.5678 22.7625C38.5861 21.481 38.6544 19.9488 37.749 18.6989C36.953 17.6001 35.3968 17.0674 34.1169 17.4556ZM20.374 28.343C20.2995 28.5349 19.6641 29.9824 18.9617 31.5598C18.2595 33.1373 17.6867 34.5108 17.6891 34.6121C17.6944 34.8333 22.3568 38.2388 22.6913 38.2659C22.8198 38.2763 23.5827 37.2131 24.3868 35.9032L25.8486 33.5213L23.1788 30.7578C20.8609 28.3584 20.4914 28.0402 20.374 28.343ZM47.0265 30.7955L44.4064 33.5243L45.8609 35.9011C46.6608 37.2084 47.3808 38.2999 47.4608 38.3266C47.6642 38.3942 52.4708 34.9135 52.5279 34.657C52.569 34.4723 49.9416 28.3615 49.73 28.1499C49.6843 28.1041 48.4678 29.2947 47.0265 30.7955ZM34.3702 35.7994C33.6376 36.4725 30.1847 42.0317 30.1866 42.5348C30.1876 42.8233 30.9636 44.1947 32.2723 46.2209L34.3562 49.4477H35.1266H35.897L37.981 46.2209C39.2897 44.1947 40.0657 42.8233 40.0667 42.5348C40.0686 42.0317 36.6157 36.4725 35.8831 35.7994C35.6482 35.5835 35.3079 35.407 35.1266 35.407C34.9454 35.407 34.6051 35.5835 34.3702 35.7994ZM33.9757 40.6694C33.4095 41.5554 32.9197 42.3443 32.8873 42.4223C32.8255 42.5704 34.9733 46.0465 35.1266 46.0465C35.2297 46.0465 37.3941 42.6645 37.3941 42.5032C37.3941 42.3321 35.2894 39.1631 35.1389 39.1076C35.0653 39.0804 34.5416 39.7833 33.9757 40.6694ZM16.6383 56.25V57.5581H35.1266H53.615V56.25V54.9419H35.1266H16.6383V56.25Z" fill="#111827"/>
</svg>
