<svg width="600" height="566" viewBox="0 0 600 566" fill="none" xmlns="http://www.w3.org/2000/svg">
<path d="M586.217 331.798H377.734V25.769H586.217V331.798ZM383.343 326.19H580.608V31.3776H383.343V326.19Z" fill="#EBEBEB"/>
<path d="M484.703 32.8496H479.094V328.994H484.703V32.8496Z" fill="#EBEBEB"/>
<path d="M591.307 37.1123H372.644V44.9222H591.307V37.1123Z" fill="#EBEBEB"/>
<path d="M591.307 45.8896H372.644V53.6995H591.307V45.8896Z" fill="#EBEBEB"/>
<path d="M591.307 54.6807H372.644V62.4905H591.307V54.6807Z" fill="#EBEBEB"/>
<path d="M591.307 63.4722H372.644V71.282H591.307V63.4722Z" fill="#EBEBEB"/>
<path d="M591.307 72.2495H372.644V80.0594H591.307V72.2495Z" fill="#EBEBEB"/>
<path d="M591.307 81.041H372.644V88.8509H591.307V81.041Z" fill="#EBEBEB"/>
<path d="M591.307 89.8325H372.644V97.6424H591.307V89.8325Z" fill="#EBEBEB"/>
<path d="M591.307 98.6099H372.644V106.42H591.307V98.6099Z" fill="#EBEBEB"/>
<path d="M591.307 107.401H372.644V115.211H591.307V107.401Z" fill="#EBEBEB"/>
<path d="M574.649 35.5278H573.247V215.547H574.649V35.5278Z" fill="#2A3042"/>
<path d="M576.43 222.067H571.452L572.714 214.917H575.196L576.43 222.067Z" fill="#2A3042"/>
<path d="M579.697 35.5278H578.295V281.924H579.697V35.5278Z" fill="#2A3042"/>
<path d="M581.492 287.182H576.514L577.762 280.031H580.244L581.492 287.182Z" fill="#2A3042"/>
<path d="M600 24.6753H363.937V41.0101H600V24.6753Z" fill="#DBDBDB"/>
<path d="M36.245 185.065C36.245 183.887 36.3993 180.761 36.3993 179.457C36.3993 173.75 34.3662 171.184 29.0521 171.044C28.5402 171.075 28.0274 171.001 27.5452 170.827C27.0629 170.653 26.6214 170.382 26.2479 170.03C25.8744 169.679 25.5768 169.255 25.3733 168.784C25.1699 168.313 25.0649 167.806 25.0649 167.293C25.0649 166.78 25.1699 166.273 25.3733 165.802C25.5768 165.332 25.8744 164.908 26.2479 164.556C26.6214 164.205 27.0629 163.934 27.5452 163.759C28.0274 163.585 28.5402 163.511 29.0521 163.543C34.3662 163.318 36.3993 160.808 36.3993 155.032C36.3993 153.629 36.245 150.573 36.245 149.423C36.245 141.852 39.4559 137 51.5703 134.35C52.4014 134.136 53.283 134.246 54.0359 134.658C54.7889 135.07 55.3569 135.753 55.6245 136.568C55.8922 137.384 55.8395 138.271 55.4772 139.049C55.1148 139.827 54.47 140.438 53.6735 140.758C46.088 143.099 44.9943 145.525 44.9943 150.839C44.9943 152.396 45.1626 154.976 45.1626 156.616C45.1626 162.715 42.19 165.688 37.0302 167.328C42.2602 169.039 45.1626 171.941 45.1626 178.027C45.1626 179.681 44.9943 182.233 44.9943 183.817C44.9943 189.131 46.088 191.557 53.6735 193.899C54.47 194.219 55.1148 194.83 55.4772 195.608C55.8395 196.386 55.8922 197.273 55.6245 198.088C55.3569 198.904 54.7889 199.587 54.0359 199.999C53.283 200.411 52.4014 200.521 51.5703 200.306C39.4419 197.572 36.245 192.707 36.245 185.065Z" fill="#EBEBEB"/>
<path d="M82.0245 149.339C82.0245 150.517 81.8703 153.644 81.8703 154.948C81.8703 160.724 83.9875 163.234 89.3016 163.458C89.8134 163.427 90.3263 163.501 90.8085 163.675C91.2908 163.85 91.7322 164.121 92.1057 164.472C92.4792 164.824 92.7769 165.248 92.9803 165.718C93.1838 166.189 93.2887 166.696 93.2887 167.209C93.2887 167.722 93.1838 168.229 92.9803 168.7C92.7769 169.171 92.4792 169.595 92.1057 169.946C91.7322 170.298 91.2908 170.569 90.8085 170.743C90.3263 170.917 89.8134 170.991 89.3016 170.96C83.9875 171.128 81.8703 173.764 81.8703 179.373C81.8703 180.705 82.0245 183.831 82.0245 184.981C82.0245 192.637 78.8277 197.488 66.7133 200.138C65.8776 200.36 64.9885 200.252 64.2306 199.836C63.4726 199.419 62.9039 198.728 62.6424 197.903C62.381 197.079 62.4467 196.186 62.8261 195.409C63.2055 194.632 63.8695 194.031 64.6802 193.73C72.1816 191.389 73.2752 188.963 73.2752 183.649C73.2752 182.079 73.121 179.513 73.121 177.858C73.121 171.773 76.0935 168.801 81.2534 167.16C76.0094 165.435 73.121 162.547 73.121 156.448C73.121 154.807 73.2752 152.241 73.2752 150.671C73.2752 145.357 72.1816 142.931 64.6802 140.59C63.8695 140.289 63.2055 139.688 62.8261 138.911C62.4467 138.134 62.381 137.241 62.6424 136.417C62.9039 135.593 63.4726 134.901 64.2306 134.485C64.9885 134.069 65.8776 133.96 66.7133 134.182C78.8277 136.916 82.0245 141.768 82.0245 149.339Z" fill="#EBEBEB"/>
<path d="M232.615 76.125C235.547 76.125 237.923 73.7185 237.923 70.75C237.923 67.7815 235.547 65.375 232.615 65.375C229.684 65.375 227.308 67.7815 227.308 70.75C227.308 73.7185 229.684 76.125 232.615 76.125Z" fill="#EBEBEB"/>
<path d="M232.615 54.625C235.547 54.625 237.923 52.2185 237.923 49.25C237.923 46.2815 235.547 43.875 232.615 43.875C229.684 43.875 227.308 46.2815 227.308 49.25C227.308 52.2185 229.684 54.625 232.615 54.625Z" fill="#EBEBEB"/>
<path d="M245.885 92.2501C245.566 92.2501 245.301 92.2501 244.982 92.0889C244.322 91.8451 243.783 91.3464 243.485 90.7017C243.187 90.0571 243.152 89.319 243.39 88.6489L264.621 29.5239C264.893 28.9002 265.389 28.4043 266.008 28.1364C266.627 27.8685 267.324 27.8485 267.957 28.0805C268.591 28.3124 269.113 28.7791 269.42 29.3862C269.727 29.9932 269.795 30.6956 269.61 31.3514L248.379 90.4764C248.008 91.5514 246.946 92.2501 245.885 92.2501ZM261.808 92.2501C261.489 92.2501 261.224 92.2501 260.905 92.0889C260.245 91.8451 259.707 91.3464 259.408 90.7017C259.11 90.0571 259.076 89.319 259.313 88.6489L280.544 29.5239C280.816 28.9002 281.312 28.4043 281.931 28.1364C282.551 27.8685 283.247 27.8485 283.88 28.0805C284.514 28.3124 285.036 28.7791 285.343 29.3862C285.65 29.9932 285.718 30.6956 285.533 31.3514L264.302 90.4764C263.931 91.5514 262.869 92.2501 261.808 92.2501Z" fill="#EBEBEB"/>
<path d="M294.237 565.295C450.305 565.295 576.823 555.214 576.823 542.777C576.823 530.341 450.305 520.259 294.237 520.259C138.169 520.259 11.6516 530.341 11.6516 542.777C11.6516 555.214 138.169 565.295 294.237 565.295Z" fill="#EBEBEB"/>
<path d="M560.698 515.519H390.872L424.734 318.548H551.725L560.698 515.519Z" fill="#DBDBDB"/>
<path d="M560.698 515.519H545.808L537.451 318.548H551.725L560.698 515.519Z" fill="#A6A6A6"/>
<path d="M0.827148 515.519L74.1866 515.183L147.532 515.057L294.237 514.818L440.942 515.057L514.288 515.183L587.647 515.519L514.288 515.87L440.942 515.982L294.237 516.22L147.532 515.982L74.1866 515.87L0.827148 515.519Z" fill="#2A3042"/>
<path d="M160.25 24.6753H20.9058V113.57H160.25V24.6753Z" fill="white"/>
<path d="M161.119 114.44H20.0225V23.792H161.119V114.44ZM21.7751 112.687H159.366V25.5587H21.7751V112.687Z" fill="#EBEBEB"/>
<g clip-path="url(#clip0_446_8544)">
<path d="M93.925 68.35H117.9V81.65H111.25H111.15V81.75V88.4H97.85V81.75V81.65H97.75H93.925H93.8608L93.8341 81.7083C91.3756 87.0722 85.7865 90.65 79.75 90.65C71.0302 90.65 64.1 83.7198 64.1 75C64.1 66.2802 71.0302 59.35 79.75 59.35C85.7865 59.35 91.3756 62.9278 93.8341 68.2917L93.8608 68.35H93.925ZM102.15 84V84.1H102.25H106.75H106.85V84V77.35H113.5H113.6V77.25V72.75V72.65H113.5H90.8504L90.4212 71.1475L90.4213 71.1475L90.4194 71.142C88.8299 66.6006 84.5161 63.65 79.75 63.65C73.3948 63.65 68.4 68.6448 68.4 75C68.4 81.3552 73.3948 86.35 79.75 86.35C84.5161 86.35 88.8299 83.3994 90.4194 78.858L90.4195 78.8581L90.4212 78.8525L90.8504 77.35H102.15V84ZM79.75 81.65C75.9802 81.65 73.1 78.7698 73.1 75C73.1 71.2302 75.9802 68.35 79.75 68.35C83.5198 68.35 86.4 71.2302 86.4 75C86.4 78.7698 83.5198 81.65 79.75 81.65ZM79.75 72.65C79.0523 72.65 78.4631 72.883 78.048 73.298C77.633 73.7131 77.4 74.3023 77.4 75C77.4 75.6977 77.633 76.2869 78.048 76.702C78.4631 77.117 79.0523 77.35 79.75 77.35C80.4477 77.35 81.0369 77.117 81.452 76.702C81.867 76.2869 82.1 75.6977 82.1 75C82.1 74.3023 81.867 73.7131 81.452 73.298C81.0369 72.883 80.4477 72.65 79.75 72.65Z" fill="#EBEBEB" stroke="white" stroke-width="0.2"/>
</g>
<path d="M160.25 24.6753H20.9058V41.4868H160.25V24.6753Z" fill="#FF6330"/>
<path d="M161.119 42.3702H20.0225V23.792H161.119V42.3702ZM21.7751 40.6035H159.366V25.5587H21.7751V40.6035Z" fill="#EBEBEB"/>
<path d="M36.6799 33.2005C36.6799 34.0325 36.4332 34.8457 35.971 35.5375C35.5088 36.2292 34.8518 36.7684 34.0832 37.0867C33.3146 37.4051 32.4688 37.4884 31.6529 37.3261C30.8369 37.1638 30.0874 36.7632 29.4991 36.1749C28.9108 35.5866 28.5102 34.8371 28.3479 34.0212C28.1856 33.2052 28.2689 32.3594 28.5873 31.5908C28.9057 30.8222 29.4448 30.1652 30.1365 29.703C30.8283 29.2408 31.6415 28.9941 32.4735 28.9941C33.5891 28.9941 34.659 29.4373 35.4479 30.2262C36.2367 31.015 36.6799 32.0849 36.6799 33.2005Z" fill="#A6A6A6"/>
<path d="M53.954 33.2005C53.954 34.0325 53.7074 34.8457 53.2451 35.5375C52.7829 36.2292 52.126 36.7684 51.3574 37.0867C50.5888 37.4051 49.743 37.4884 48.927 37.3261C48.1111 37.1638 47.3616 36.7632 46.7733 36.1749C46.185 35.5866 45.7844 34.8371 45.6221 34.0212C45.4598 33.2052 45.5431 32.3594 45.8615 31.5908C46.1798 30.8222 46.719 30.1652 47.4107 29.703C48.1024 29.2408 48.9157 28.9941 49.7477 28.9941C50.8633 28.9941 51.9332 29.4373 52.722 30.2262C53.5109 31.015 53.954 32.0849 53.954 33.2005Z" fill="#EBEBEB"/>
<path d="M71.2983 33.2005C71.2983 34.0325 71.0516 34.8457 70.5894 35.5375C70.1272 36.2292 69.4702 36.7684 68.7016 37.0867C67.933 37.4051 67.0872 37.4884 66.2713 37.3261C65.4553 37.1638 64.7058 36.7632 64.1175 36.1749C63.5292 35.5866 63.1286 34.8371 62.9663 34.0212C62.804 33.2052 62.8873 32.3594 63.2057 31.5908C63.5241 30.8222 64.0632 30.1652 64.7549 29.703C65.4467 29.2408 66.2599 28.9941 67.0919 28.9941C68.2075 28.9941 69.2774 29.4373 70.0663 30.2262C70.8551 31.015 71.2983 32.0849 71.2983 33.2005Z" fill="white"/>
<path d="M390.395 278.994H251.052V367.889H390.395V278.994Z" fill="white"/>
<path d="M317.167 331.916C317.99 333.017 319.04 333.927 320.246 334.586C321.452 335.245 322.785 335.637 324.156 335.735C325.527 335.833 326.903 335.635 328.19 335.155C329.478 334.675 330.647 333.923 331.618 332.951L337.368 327.201C339.114 325.394 340.08 322.973 340.058 320.461C340.036 317.948 339.028 315.544 337.252 313.767C335.475 311.991 333.071 310.983 330.558 310.961C328.046 310.939 325.625 311.905 323.817 313.651L320.521 316.928" stroke="#EBEBEB" stroke-width="4" stroke-linecap="round" stroke-linejoin="round"/>
<path d="M324.833 328.083C324.01 326.982 322.96 326.072 321.754 325.413C320.548 324.754 319.215 324.362 317.844 324.264C316.473 324.166 315.097 324.364 313.81 324.844C312.522 325.324 311.353 326.076 310.382 327.048L304.632 332.798C302.886 334.605 301.92 337.026 301.942 339.539C301.964 342.052 302.972 344.455 304.748 346.232C306.525 348.009 308.929 349.017 311.442 349.038C313.954 349.06 316.375 348.094 318.183 346.349L321.46 343.071" stroke="#EBEBEB" stroke-width="4" stroke-linecap="round" stroke-linejoin="round"/>
<path d="M391.279 368.772H250.168V278.11H391.279V368.772ZM251.935 367.005H389.582V279.877H251.935V367.005Z" fill="#EBEBEB"/>
<path d="M390.395 278.994H251.052V295.805H390.395V278.994Z" fill="#FF6330"/>
<path d="M391.279 296.689H250.168V278.11H391.279V296.689ZM251.935 294.922H389.582V279.877H251.935V294.922Z" fill="#EBEBEB"/>
<path d="M266.84 287.519C266.84 288.351 266.593 289.164 266.131 289.856C265.668 290.548 265.011 291.087 264.243 291.405C263.474 291.723 262.628 291.807 261.813 291.644C260.997 291.482 260.247 291.082 259.659 290.493C259.071 289.905 258.67 289.155 258.508 288.34C258.345 287.524 258.429 286.678 258.747 285.909C259.065 285.141 259.604 284.484 260.296 284.021C260.988 283.559 261.801 283.312 262.633 283.312C263.749 283.312 264.819 283.756 265.608 284.545C266.396 285.333 266.84 286.403 266.84 287.519Z" fill="#A6A6A6"/>
<path d="M284.114 287.519C284.114 288.351 283.867 289.164 283.405 289.856C282.943 290.548 282.286 291.087 281.517 291.405C280.749 291.723 279.903 291.807 279.087 291.644C278.271 291.482 277.521 291.082 276.933 290.493C276.345 289.905 275.944 289.155 275.782 288.34C275.62 287.524 275.703 286.678 276.021 285.909C276.34 285.141 276.879 284.484 277.571 284.021C278.262 283.559 279.075 283.312 279.907 283.312C281.023 283.312 282.093 283.756 282.882 284.545C283.671 285.333 284.114 286.403 284.114 287.519Z" fill="#EBEBEB"/>
<path d="M301.388 287.519C301.388 288.351 301.141 289.164 300.679 289.856C300.217 290.548 299.56 291.087 298.791 291.405C298.023 291.723 297.177 291.807 296.361 291.644C295.545 291.482 294.796 291.082 294.207 290.493C293.619 289.905 293.218 289.155 293.056 288.34C292.894 287.524 292.977 286.678 293.296 285.909C293.614 285.141 294.153 284.484 294.845 284.021C295.537 283.559 296.35 283.312 297.182 283.312C298.297 283.312 299.367 283.756 300.156 284.545C300.945 285.333 301.388 286.403 301.388 287.519Z" fill="white"/>
<path d="M325.407 108.2H93.0173V299.044H325.407V108.2Z" fill="white"/>
<path d="M326.29 299.942H92.134V107.331H326.29V299.942ZM93.9007 298.175H324.523V109.084H93.9007V298.175Z" fill="#EBEBEB"/>
<path d="M325.407 108.2H93.0173V125.012H325.407V108.2Z" fill="#FF6330"/>
<path d="M326.29 125.895H92.134V107.331H326.29V125.895ZM93.9007 124.129H324.523V109.084H93.9007V124.129Z" fill="#EBEBEB"/>
<path d="M108.791 116.739C108.791 117.571 108.545 118.384 108.083 119.076C107.62 119.768 106.963 120.307 106.195 120.625C105.426 120.944 104.58 121.027 103.764 120.865C102.948 120.702 102.199 120.302 101.611 119.713C101.022 119.125 100.622 118.376 100.459 117.56C100.297 116.744 100.38 115.898 100.699 115.129C101.017 114.361 101.556 113.704 102.248 113.242C102.94 112.779 103.753 112.533 104.585 112.533C105.701 112.533 106.771 112.976 107.559 113.765C108.348 114.554 108.791 115.624 108.791 116.739Z" fill="#A6A6A6"/>
<path d="M126.066 116.739C126.066 117.571 125.819 118.384 125.357 119.076C124.895 119.768 124.238 120.307 123.469 120.625C122.7 120.944 121.855 121.027 121.039 120.865C120.223 120.702 119.473 120.302 118.885 119.713C118.297 119.125 117.896 118.376 117.734 117.56C117.571 116.744 117.655 115.898 117.973 115.129C118.291 114.361 118.831 113.704 119.522 113.242C120.214 112.779 121.027 112.533 121.859 112.533C122.975 112.533 124.045 112.976 124.834 113.765C125.622 114.554 126.066 115.624 126.066 116.739Z" fill="#EBEBEB"/>
<path d="M143.354 116.739C143.354 117.571 143.107 118.384 142.645 119.076C142.183 119.768 141.526 120.307 140.757 120.625C139.989 120.944 139.143 121.027 138.327 120.865C137.511 120.702 136.761 120.302 136.173 119.713C135.585 119.125 135.184 118.376 135.022 117.56C134.86 116.744 134.943 115.898 135.261 115.129C135.58 114.361 136.119 113.704 136.811 113.242C137.502 112.779 138.316 112.533 139.148 112.533C140.263 112.533 141.333 112.976 142.122 113.765C142.911 114.554 143.354 115.624 143.354 116.739Z" fill="white"/>
<path d="M120.036 158.453H111.049V161.734H120.036V158.453Z" fill="#EBEBEB"/>
<path d="M229.683 158.453H126.584V161.734H229.683V158.453Z" fill="#EBEBEB"/>
<path d="M252.271 158.453H235.208V161.734H252.271V158.453Z" fill="#FF6330"/>
<path d="M291.321 202.381H274.243V205.662H291.321V202.381Z" fill="#EBEBEB"/>
<path d="M285.502 158.453H255.987V161.734H285.502V158.453Z" fill="#A6A6A6"/>
<path d="M129.024 167.244H120.036V170.525H129.024V167.244Z" fill="#EBEBEB"/>
<path d="M203 167.244H135.348V170.525H203V167.244Z" fill="#A6A6A6"/>
<path d="M270.191 202.381H230.581V205.662H270.191V202.381Z" fill="#A6A6A6"/>
<path d="M191.209 193.604H126.584V196.885H191.209V193.604Z" fill="#A6A6A6"/>
<path d="M180.679 176.021H135.348V179.302H180.679V176.021Z" fill="#FF6330"/>
<path d="M263.909 184.812H246.621V188.094H263.909V184.812Z" fill="#A6A6A6"/>
<path d="M258.104 176.021H185.712V179.302H258.104V176.021Z" fill="#A6A6A6"/>
<path d="M212.998 202.381H126.584V205.662H212.998V202.381Z" fill="#FF6330"/>
<path d="M300.911 167.244H254.08V170.525H300.911V167.244Z" fill="#FF6330"/>
<path d="M250.365 167.244H207.249V170.525H250.365V167.244Z" fill="#EBEBEB"/>
<path d="M290.606 176.021H261.511V179.302H290.606V176.021Z" fill="#EBEBEB"/>
<path d="M129.024 176.021H120.036V179.302H129.024V176.021Z" fill="#EBEBEB"/>
<path d="M120.036 184.812H111.049V188.094H120.036V184.812Z" fill="#A6A6A6"/>
<path d="M179.697 184.812H126.584V188.094H179.697V184.812Z" fill="#EBEBEB"/>
<path d="M188.46 211.173H135.348V214.454H188.46V211.173Z" fill="#EBEBEB"/>
<path d="M274.776 219.964H234.394V223.245H274.776V219.964Z" fill="#FF6330"/>
<path d="M246.046 211.173H192.779V214.454H246.046V211.173Z" fill="#FF6330"/>
<path d="M229.753 219.964H183.385V223.245H229.753V219.964Z" fill="#EBEBEB"/>
<path d="M150.729 219.964H135.348V223.245H150.729V219.964Z" fill="#A6A6A6"/>
<path d="M252.271 193.604H194.868V196.885H252.271V193.604Z" fill="#EBEBEB"/>
<path d="M292.513 193.604H255.987V196.885H292.513V193.604Z" fill="#FF6330"/>
<path d="M242.429 184.812H185.095V188.094H242.429V184.812Z" fill="#FF6330"/>
<path d="M120.036 193.604H111.049V196.885H120.036V193.604Z" fill="#EBEBEB"/>
<path d="M120.036 202.381H111.049V205.662H120.036V202.381Z" fill="#EBEBEB"/>
<path d="M129.024 211.173H120.036V214.454H129.024V211.173Z" fill="#A6A6A6"/>
<path d="M129.024 219.964H120.036V223.245H129.024V219.964Z" fill="#EBEBEB"/>
<path d="M120.036 227.312H111.049V230.593H120.036V227.312Z" fill="#EBEBEB"/>
<path d="M229.683 227.312H126.584V230.593H229.683V227.312Z" fill="#EBEBEB"/>
<path d="M129.024 236.103H120.036V239.384H129.024V236.103Z" fill="#EBEBEB"/>
<path d="M203 236.103H135.348V239.384H203V236.103Z" fill="#A6A6A6"/>
<path d="M191.209 262.463H126.584V265.744H191.209V262.463Z" fill="#A6A6A6"/>
<path d="M180.679 244.894H135.348V248.175H180.679V244.894Z" fill="#FF6330"/>
<path d="M258.104 244.894H185.712V248.175H258.104V244.894Z" fill="#A6A6A6"/>
<path d="M212.998 271.24H126.584V274.521H212.998V271.24Z" fill="#FF6330"/>
<path d="M300.911 236.103H254.08V239.384H300.911V236.103Z" fill="#FF6330"/>
<path d="M250.365 236.103H207.249V239.384H250.365V236.103Z" fill="#EBEBEB"/>
<path d="M290.606 244.894H261.511V248.175H290.606V244.894Z" fill="#EBEBEB"/>
<path d="M129.024 244.894H120.036V248.175H129.024V244.894Z" fill="#EBEBEB"/>
<path d="M120.036 253.671H111.049V256.952H120.036V253.671Z" fill="#A6A6A6"/>
<path d="M179.697 253.671H126.584V256.952H179.697V253.671Z" fill="#EBEBEB"/>
<path d="M252.271 262.463H194.868V265.744H252.271V262.463Z" fill="#EBEBEB"/>
<path d="M242.429 253.671H185.095V256.952H242.429V253.671Z" fill="#FF6330"/>
<path d="M120.036 262.463H111.049V265.744H120.036V262.463Z" fill="#EBEBEB"/>
<path d="M116.601 149.816C116.748 149.963 116.83 150.162 116.83 150.369C116.83 150.577 116.748 150.776 116.601 150.923C116.452 151.066 116.254 151.146 116.047 151.146C115.841 151.146 115.642 151.066 115.494 150.923L112.03 147.404C112.023 147.381 112.023 147.357 112.03 147.334C112.025 147.301 112.025 147.268 112.03 147.236C112.025 147.208 112.025 147.179 112.03 147.151V147.067C112.03 147.067 112.03 147.067 112.03 146.983V146.899C112.025 146.867 112.025 146.833 112.03 146.801C112.03 146.801 112.03 146.703 112.03 146.689C112.047 146.651 112.077 146.622 112.114 146.605L115.578 143.085C115.727 142.942 115.925 142.862 116.132 142.862C116.338 142.862 116.536 142.942 116.685 143.085C116.832 143.232 116.914 143.432 116.914 143.639C116.914 143.847 116.832 144.046 116.685 144.193L113.769 147.137L116.601 149.816Z" fill="#FF6330"/>
<path d="M119.742 150.208L122.771 143.015C122.805 142.934 122.855 142.859 122.918 142.796C122.98 142.734 123.055 142.684 123.137 142.65C123.219 142.616 123.307 142.599 123.396 142.599C123.484 142.599 123.572 142.617 123.654 142.651C123.736 142.685 123.81 142.735 123.873 142.798C123.936 142.86 123.985 142.935 124.019 143.017C124.053 143.099 124.071 143.187 124.07 143.276C124.07 143.364 124.053 143.452 124.019 143.534L120.99 150.741C120.936 150.863 120.847 150.966 120.735 151.038C120.623 151.11 120.492 151.149 120.359 151.148C120.281 151.167 120.199 151.167 120.121 151.148C120.029 151.118 119.944 151.069 119.874 151.003C119.803 150.937 119.747 150.856 119.711 150.767C119.675 150.677 119.659 150.581 119.665 150.484C119.67 150.388 119.696 150.294 119.742 150.208Z" fill="#FF6330"/>
<path d="M129.978 147.306C129.957 147.34 129.928 147.369 129.894 147.39L126.43 150.909C126.277 151.05 126.077 151.129 125.869 151.134C125.665 151.131 125.47 151.051 125.323 150.909C125.176 150.762 125.094 150.563 125.094 150.355C125.094 150.148 125.176 149.949 125.323 149.802L128.239 146.843L125.323 143.899C125.176 143.751 125.094 143.552 125.094 143.345C125.094 143.137 125.176 142.938 125.323 142.791C125.471 142.648 125.67 142.568 125.876 142.568C126.083 142.568 126.281 142.648 126.43 142.791L129.894 146.31C129.931 146.327 129.961 146.357 129.978 146.394C130.006 146.428 130.03 146.466 130.048 146.507C130.042 146.544 130.042 146.582 130.048 146.619V146.703V146.871C130.044 146.908 130.044 146.946 130.048 146.983L129.978 147.306Z" fill="#FF6330"/>
<path d="M351.924 81H257V116.151H351.924V81Z" fill="#455A64"/>
<path d="M282.242 90.32V102.344C282.242 103.832 281.786 105.008 280.874 105.872C279.978 106.736 278.794 107.168 277.322 107.168C275.85 107.168 274.658 106.736 273.746 105.872C272.85 105.008 272.402 103.832 272.402 102.344H275.162C275.178 103.08 275.362 103.664 275.714 104.096C276.082 104.528 276.618 104.744 277.322 104.744C278.026 104.744 278.562 104.528 278.93 104.096C279.298 103.648 279.482 103.064 279.482 102.344V90.32H282.242ZM292.909 107.168C291.789 107.168 290.781 106.976 289.885 106.592C288.989 106.192 288.285 105.632 287.773 104.912C287.261 104.192 287.005 103.352 287.005 102.392H289.933C289.997 103.112 290.277 103.704 290.773 104.168C291.285 104.632 291.997 104.864 292.909 104.864C293.853 104.864 294.589 104.64 295.117 104.192C295.645 103.728 295.909 103.136 295.909 102.416C295.909 101.856 295.741 101.4 295.405 101.048C295.085 100.696 294.677 100.424 294.181 100.232C293.701 100.04 293.029 99.832 292.165 99.608C291.077 99.32 290.189 99.032 289.501 98.744C288.829 98.44 288.253 97.976 287.773 97.352C287.293 96.728 287.053 95.896 287.053 94.856C287.053 93.896 287.293 93.056 287.773 92.336C288.253 91.616 288.925 91.064 289.789 90.68C290.653 90.296 291.653 90.104 292.789 90.104C294.405 90.104 295.725 90.512 296.749 91.328C297.789 92.128 298.365 93.232 298.477 94.64H295.453C295.405 94.032 295.117 93.512 294.589 93.08C294.061 92.648 293.365 92.432 292.501 92.432C291.717 92.432 291.077 92.632 290.581 93.032C290.085 93.432 289.837 94.008 289.837 94.76C289.837 95.272 289.989 95.696 290.293 96.032C290.613 96.352 291.013 96.608 291.493 96.8C291.973 96.992 292.629 97.2 293.461 97.424C294.565 97.728 295.461 98.032 296.149 98.336C296.853 98.64 297.445 99.112 297.925 99.752C298.421 100.376 298.669 101.216 298.669 102.272C298.669 103.12 298.437 103.92 297.973 104.672C297.525 105.424 296.861 106.032 295.981 106.496C295.117 106.944 294.093 107.168 292.909 107.168ZM310.225 107.168C308.673 107.168 307.241 106.808 305.929 106.088C304.633 105.352 303.601 104.336 302.833 103.04C302.081 101.728 301.705 100.256 301.705 98.624C301.705 96.992 302.081 95.528 302.833 94.232C303.601 92.936 304.633 91.928 305.929 91.208C307.241 90.472 308.673 90.104 310.225 90.104C311.793 90.104 313.225 90.472 314.521 91.208C315.833 91.928 316.865 92.936 317.617 94.232C318.369 95.528 318.745 96.992 318.745 98.624C318.745 100.256 318.369 101.728 317.617 103.04C316.865 104.336 315.833 105.352 314.521 106.088C313.225 106.808 311.793 107.168 310.225 107.168ZM310.225 104.792C311.329 104.792 312.313 104.544 313.177 104.048C314.041 103.536 314.713 102.816 315.193 101.888C315.689 100.944 315.937 99.856 315.937 98.624C315.937 97.392 315.689 96.312 315.193 95.384C314.713 94.456 314.041 93.744 313.177 93.248C312.313 92.752 311.329 92.504 310.225 92.504C309.121 92.504 308.137 92.752 307.273 93.248C306.409 93.744 305.729 94.456 305.233 95.384C304.753 96.312 304.513 97.392 304.513 98.624C304.513 99.856 304.753 100.944 305.233 101.888C305.729 102.816 306.409 103.536 307.273 104.048C308.137 104.544 309.121 104.792 310.225 104.792ZM335.861 107H333.125L324.893 94.544V107H322.157V90.296H324.893L333.125 102.728V90.296H335.861V107Z" fill="white"/>
<path d="M98.2249 216H20V251.151H98.2249V216Z" fill="#455A64"/>
<path d="M51.968 238.592H44.984L43.784 242H40.928L46.904 225.296H50.072L56.048 242H53.168L51.968 238.592ZM51.2 236.36L48.488 228.608L45.752 236.36H51.2ZM71.0304 230.288C71.0304 231.136 70.8304 231.936 70.4304 232.688C70.0304 233.44 69.3904 234.056 68.5104 234.536C67.6304 235 66.5024 235.232 65.1264 235.232H62.1024V242H59.3664V225.32H65.1264C66.4064 225.32 67.4864 225.544 68.3664 225.992C69.2624 226.424 69.9264 227.016 70.3584 227.768C70.8064 228.52 71.0304 229.36 71.0304 230.288ZM65.1264 233C66.1664 233 66.9424 232.768 67.4544 232.304C67.9664 231.824 68.2224 231.152 68.2224 230.288C68.2224 228.464 67.1904 227.552 65.1264 227.552H62.1024V233H65.1264ZM77.0958 225.32V242H74.3598V225.32H77.0958Z" fill="white"/>
<path d="M328.828 213.43L334.759 227.76L328.828 230.214L322.869 215.786L313.068 223.385V183.018L341.335 211.565L328.828 213.43Z" fill="#2A3042"/>
<path d="M313.068 178.685C312.82 178.037 312.696 177.347 312.703 176.652C312.688 175.957 312.812 175.266 313.068 174.619C313.32 175.267 313.439 175.958 313.418 176.652C313.431 177.346 313.312 178.036 313.068 178.685Z" fill="#2A3042"/>
<path d="M309.563 180.088C308.934 179.802 308.364 179.403 307.88 178.91C307.375 178.432 306.974 177.854 306.702 177.213C307.335 177.499 307.906 177.903 308.385 178.405C308.89 178.878 309.291 179.451 309.563 180.088Z" fill="#2A3042"/>
<path d="M308.118 183.551C306.811 184.036 305.373 184.036 304.066 183.551C305.376 183.083 306.808 183.083 308.118 183.551Z" fill="#2A3042"/>
<path d="M309.563 187.098C309.291 187.735 308.89 188.308 308.385 188.781C307.906 189.283 307.335 189.687 306.702 189.973C306.974 189.332 307.375 188.754 307.88 188.276C308.364 187.783 308.934 187.384 309.563 187.098Z" fill="#2A3042"/>
<path d="M318.073 183.551C319.389 183.083 320.825 183.083 322.14 183.551C320.828 184.037 319.385 184.037 318.073 183.551Z" fill="#2A3042"/>
<path d="M316.559 180.088C316.841 179.457 317.241 178.886 317.737 178.405C318.218 177.9 318.795 177.495 319.434 177.213C318.839 178.46 317.82 179.454 316.559 180.018V180.088Z" fill="#2A3042"/>
<path d="M419.546 351.737C408.735 398.82 386.848 458.425 369.952 470.455C356.324 480.158 284.773 497.236 280.791 497.671C270.906 498.666 251.346 428.896 261.638 426.064C274.551 422.488 335.853 420.581 339.344 417.006C342.835 413.431 365.269 383.046 390.536 348.035C407.95 323.848 426.248 322.53 419.546 351.737Z" fill="#FAC4BB"/>
<path d="M288.699 493.843C287.521 494.431 270.822 502.83 260.488 505.831C252.79 508.06 230.426 513.893 227.131 505.663C224.874 500.054 237.605 495.062 246.537 491.333C251.248 489.384 257.053 484.448 255.665 481.434C253.239 476.134 241.125 481.434 233.16 486.075C217.737 495.034 197.224 511.145 187.816 503.321C184.268 500.376 188.39 494.992 194.434 489.72C184.619 495.862 174.173 500.937 170.093 497.782C167.765 496.002 167.653 493.576 168.957 490.772C165.928 491.753 163.25 491.557 161.385 489.594C158.203 486.257 159.745 481.336 163.236 476.288C162.638 476.221 162.064 476.014 161.562 475.682C161.06 475.351 160.644 474.905 160.348 474.381C153.59 464.089 187.367 434.546 199.061 431.784C233.427 423.61 269.98 426.596 269.98 426.596C283.483 437.379 288.727 493.814 288.699 493.843Z" fill="#FAC4BB"/>
<path d="M238.152 462.196C229.97 463.471 222.154 466.477 215.227 471.016C206.506 476.778 200.729 483.509 193.424 490.281C193.397 490.319 193.384 490.365 193.387 490.412C193.389 490.459 193.407 490.503 193.437 490.539C193.468 490.574 193.509 490.598 193.555 490.607C193.601 490.617 193.649 490.61 193.69 490.589C197.168 487.365 211.61 475.25 215.339 472.502C222.072 467.424 229.874 463.947 238.152 462.336C238.278 462.322 238.25 462.182 238.152 462.196Z" fill="#2A3042"/>
<path d="M231.758 447.614C222.729 450.082 213.531 452.578 205.118 456.854C195.934 461.523 188.755 469.151 181.702 476.484C177.459 480.887 173.318 485.388 169.279 489.987C169.111 490.169 169.364 490.477 169.546 490.281C176.706 482.71 184.095 475.353 191.714 468.212C198.735 461.549 207.002 456.336 216.04 452.872C221.214 450.909 226.514 449.339 231.814 447.768C231.885 447.74 231.857 447.586 231.758 447.614Z" fill="#2A3042"/>
<path d="M222.112 434.855C213.334 436.664 205.679 438.206 197.897 442.903C187.619 449.129 177.678 459.617 174.201 463.346C170.345 467.454 166.643 471.759 162.984 475.965C162.829 476.134 163.138 476.4 163.292 476.218C171.636 466.815 180.577 457.958 190.059 449.704C194.521 445.71 199.572 442.427 205.034 439.973C210.569 437.796 216.283 436.102 222.112 434.911C222.112 434.911 222.14 434.855 222.112 434.855Z" fill="#2A3042"/>
<path d="M339.863 410.135L405.763 407.331C405.763 407.331 417.737 374.647 422.14 345.637C426.542 316.627 401.823 327.031 377.356 358.256C352.888 389.482 339.863 410.135 339.863 410.135Z" fill="#FF6330"/>
<path d="M361.441 390.407C361.89 390.281 362.339 390.239 362.844 390.141C363.234 390.055 363.639 390.058 364.028 390.149C364.418 390.24 364.782 390.417 365.094 390.667C365.406 390.917 365.658 391.234 365.831 391.594C366.005 391.954 366.095 392.349 366.096 392.749C366.089 393.108 366.173 393.463 366.343 393.78C366.512 394.097 366.761 394.365 367.064 394.557C367.397 394.773 367.777 394.903 368.172 394.936C368.62 395.02 369.069 395.076 369.574 395.202C369.125 395.329 368.676 395.385 368.172 395.483C367.667 395.584 367.145 395.53 366.671 395.329C366.174 395.112 365.75 394.755 365.452 394.302C365.153 393.849 364.992 393.319 364.989 392.777C364.985 392.421 364.889 392.072 364.71 391.765C364.53 391.457 364.274 391.202 363.965 391.024C363.624 390.823 363.239 390.708 362.844 390.688C362.339 390.603 361.89 390.547 361.441 390.407ZM407.81 350.362C408.21 350.392 408.598 350.511 408.946 350.713C409.252 350.893 409.507 351.149 409.686 351.455C409.866 351.762 409.963 352.11 409.969 352.465C409.973 353.008 410.134 353.538 410.432 353.991C410.731 354.444 411.154 354.8 411.652 355.017C412.126 355.215 412.649 355.264 413.152 355.158C413.601 355.073 414.049 355.017 414.554 354.891C414.105 354.765 413.657 354.709 413.152 354.625C412.757 354.594 412.376 354.464 412.044 354.246C411.744 354.05 411.498 353.782 411.329 353.466C411.16 353.15 411.073 352.796 411.077 352.437C411.058 351.893 410.881 351.365 410.567 350.919C410.254 350.474 409.817 350.129 409.31 349.928C408.828 349.759 408.31 349.725 407.81 349.829C407.361 349.914 406.913 349.97 406.478 350.096C406.927 350.222 407.375 350.278 407.81 350.362ZM409.492 376.063C409.19 376.326 408.83 376.513 408.441 376.61C408.1 376.702 407.741 376.704 407.399 376.616C407.058 376.527 406.745 376.351 406.492 376.105C406.107 375.72 405.618 375.456 405.085 375.343C404.553 375.231 403.999 375.277 403.491 375.474C403.018 375.678 402.614 376.014 402.328 376.442C402.075 376.82 401.795 377.171 401.57 377.578C401.977 377.353 402.328 377.073 402.706 376.82C403.013 376.57 403.373 376.393 403.758 376.302C404.109 376.227 404.474 376.244 404.817 376.349C405.161 376.455 405.472 376.646 405.721 376.905C406.006 377.195 406.354 377.418 406.738 377.554C407.121 377.691 407.531 377.739 407.936 377.695C408.341 377.65 408.731 377.514 409.076 377.297C409.421 377.08 409.712 376.788 409.927 376.442C410.18 376.063 410.46 375.699 410.684 375.292C410.236 375.531 409.885 375.811 409.506 376.063H409.492ZM391.573 346.086C391.267 346.346 390.908 346.537 390.522 346.647C390.177 346.733 389.817 346.73 389.473 346.64C389.13 346.549 388.815 346.373 388.559 346.128L388.208 345.819C387.942 346.086 387.689 346.352 387.437 346.633C387.571 346.714 387.694 346.813 387.801 346.927C388.2 347.301 388.698 347.551 389.236 347.646C389.774 347.74 390.328 347.676 390.83 347.46C391.291 347.241 391.68 346.896 391.952 346.464C392.204 346.086 392.485 345.735 392.709 345.329C392.386 345.539 391.966 345.833 391.587 346.086H391.573ZM384.128 370.777C384.101 371.176 383.986 371.564 383.791 371.913C383.609 372.218 383.353 372.471 383.047 372.65C382.74 372.829 382.393 372.928 382.039 372.937C381.494 372.937 380.961 373.097 380.505 373.396C380.05 373.695 379.691 374.12 379.473 374.619C379.283 375.09 379.234 375.607 379.333 376.105C379.431 376.554 379.473 377.003 379.599 377.507C379.725 377.059 379.781 376.61 379.879 376.105C379.917 375.714 380.042 375.335 380.244 374.998C380.44 374.699 380.709 374.455 381.026 374.288C381.342 374.121 381.695 374.038 382.053 374.044C382.6 374.028 383.131 373.852 383.579 373.539C384.027 373.225 384.374 372.786 384.577 372.278C384.739 371.795 384.773 371.277 384.675 370.777C384.577 370.329 384.52 369.88 384.394 369.375C384.268 369.88 384.226 370.329 384.128 370.777ZM403.001 395.889C402.98 396.289 402.865 396.679 402.664 397.025C402.484 397.332 402.228 397.587 401.921 397.766C401.615 397.945 401.267 398.043 400.911 398.049C400.37 398.051 399.842 398.21 399.389 398.506C398.936 398.802 398.579 399.223 398.36 399.717C398.159 400.191 398.105 400.713 398.205 401.218C398.303 401.666 398.36 402.115 398.486 402.62C398.612 402.171 398.668 401.722 398.752 401.218C398.788 400.823 398.918 400.444 399.131 400.11C399.325 399.809 399.594 399.564 399.91 399.397C400.227 399.23 400.582 399.147 400.939 399.156C401.484 399.138 402.012 398.961 402.458 398.647C402.903 398.333 403.248 397.896 403.449 397.39C403.618 396.908 403.652 396.389 403.547 395.889C403.463 395.441 403.407 394.992 403.281 394.487C403.155 394.992 403.099 395.441 403.001 395.889Z" fill="white"/>
<path d="M408.048 393.029C393.789 392.665 379.487 393.296 365.227 394.207C361.189 394.478 357.16 394.833 353.141 395.273C353.029 395.273 353.015 395.455 353.141 395.455C360.264 395.455 367.386 395.217 374.509 395.006C381.632 394.796 388.811 394.502 395.948 394.095C399.986 393.857 404.01 393.618 408.034 393.296C408.217 393.282 408.231 393.029 408.048 393.029Z" fill="#2A3042"/>
<path d="M358.357 515.519H526.612C528.463 512.126 500.869 364.692 444.111 323.175C431.492 313.977 409.184 319.894 402.972 328.854C371.789 373.862 358.357 515.519 358.357 515.519Z" fill="#FF6330"/>
<path d="M429.739 390.407C430.188 390.281 430.637 390.239 431.141 390.141C431.532 390.055 431.937 390.058 432.326 390.149C432.715 390.24 433.08 390.417 433.392 390.667C433.703 390.917 433.955 391.234 434.129 391.594C434.303 391.955 434.393 392.349 434.394 392.749C434.386 393.108 434.471 393.463 434.641 393.78C434.81 394.097 435.059 394.365 435.362 394.558C435.696 394.77 436.075 394.9 436.47 394.936C436.918 395.02 437.367 395.076 437.872 395.203C437.423 395.329 436.974 395.385 436.47 395.483C435.965 395.583 435.443 395.529 434.969 395.329C434.472 395.112 434.048 394.755 433.75 394.302C433.451 393.849 433.29 393.319 433.287 392.777C433.283 392.421 433.187 392.072 433.007 391.765C432.828 391.457 432.571 391.202 432.263 391.024C431.923 390.822 431.537 390.706 431.141 390.688C430.637 390.604 430.244 390.548 429.739 390.407ZM455.889 479.401C456.285 479.43 456.669 479.55 457.011 479.751C457.318 479.927 457.574 480.18 457.753 480.485C457.933 480.789 458.03 481.136 458.034 481.49C458.035 482.035 458.195 482.568 458.494 483.023C458.792 483.479 459.217 483.838 459.717 484.056C460.193 484.246 460.714 484.295 461.217 484.196C461.666 484.112 462.115 484.056 462.619 483.929C462.171 483.803 461.722 483.747 461.217 483.649C460.823 483.624 460.441 483.499 460.109 483.284C459.809 483.089 459.563 482.82 459.394 482.504C459.225 482.188 459.138 481.834 459.142 481.476C459.134 480.928 458.962 480.396 458.646 479.948C458.331 479.5 457.888 479.158 457.375 478.966C456.9 478.789 456.383 478.755 455.889 478.868C455.44 478.952 454.992 479.008 454.487 479.134C454.992 479.274 455.482 479.33 455.889 479.415V479.401ZM486.736 395.483C487.132 395.503 487.516 395.618 487.858 395.82C488.166 395.997 488.422 396.253 488.602 396.56C488.781 396.867 488.878 397.216 488.881 397.572C488.885 398.115 489.046 398.645 489.344 399.098C489.643 399.551 490.066 399.907 490.564 400.124C491.037 400.325 491.56 400.379 492.064 400.278C492.513 400.18 492.961 400.124 493.466 399.998C493.017 399.872 492.569 399.816 492.064 399.731C491.669 399.698 491.289 399.568 490.956 399.353C490.653 399.16 490.405 398.892 490.235 398.575C490.066 398.259 489.981 397.903 489.989 397.544C489.988 397.144 489.897 396.75 489.724 396.39C489.55 396.029 489.298 395.712 488.986 395.462C488.674 395.212 488.31 395.035 487.921 394.944C487.531 394.853 487.126 394.85 486.736 394.936C486.287 395.034 485.839 395.076 485.334 395.203C485.867 395.343 486.329 395.399 486.764 395.497L486.736 395.483ZM407.81 350.362C408.21 350.392 408.599 350.512 408.946 350.713C409.252 350.893 409.507 351.149 409.686 351.456C409.866 351.763 409.963 352.11 409.969 352.466C409.973 353.008 410.134 353.538 410.432 353.991C410.731 354.444 411.155 354.801 411.652 355.018C412.126 355.215 412.649 355.264 413.152 355.158C413.601 355.074 414.049 355.018 414.554 354.891C414.106 354.765 413.657 354.709 413.152 354.625C412.757 354.594 412.376 354.464 412.044 354.246C411.744 354.051 411.498 353.782 411.329 353.466C411.16 353.15 411.073 352.796 411.077 352.438C411.058 351.893 410.881 351.365 410.567 350.92C410.254 350.474 409.817 350.129 409.31 349.928C408.828 349.759 408.31 349.725 407.81 349.83C407.361 349.914 406.913 349.97 406.478 350.096C406.927 350.222 407.375 350.278 407.81 350.362ZM456.394 349.353C456.793 349.38 457.18 349.495 457.53 349.689C457.834 349.871 458.088 350.128 458.267 350.434C458.446 350.741 458.544 351.087 458.553 351.442C458.554 351.987 458.714 352.52 459.012 352.976C459.311 353.431 459.736 353.79 460.236 354.008C460.712 354.198 461.233 354.247 461.736 354.148C462.171 354.05 462.619 353.994 463.068 353.882C462.619 353.756 462.171 353.7 461.736 353.601C461.339 353.566 460.956 353.441 460.614 353.237C460.316 353.04 460.071 352.771 459.905 352.455C459.738 352.139 459.654 351.786 459.661 351.428C459.645 350.881 459.469 350.35 459.155 349.902C458.841 349.453 458.403 349.107 457.894 348.904C457.412 348.736 456.894 348.702 456.394 348.806C455.945 348.904 455.496 348.96 454.992 349.087C455.482 349.199 455.959 349.255 456.408 349.353H456.394ZM395.892 427.872C396.291 427.899 396.678 428.014 397.028 428.209C397.33 428.392 397.582 428.648 397.759 428.955C397.935 429.261 398.031 429.608 398.037 429.961C398.038 430.506 398.198 431.039 398.496 431.495C398.795 431.951 399.22 432.309 399.72 432.527C400.196 432.717 400.717 432.766 401.22 432.668C401.669 432.583 402.117 432.527 402.622 432.401C402.173 432.275 401.725 432.219 401.22 432.121C400.827 432.089 400.447 431.964 400.112 431.756C399.812 431.56 399.566 431.292 399.397 430.976C399.228 430.66 399.141 430.306 399.145 429.947C399.139 429.399 398.967 428.866 398.652 428.418C398.336 427.97 397.892 427.628 397.378 427.438C396.903 427.26 396.386 427.226 395.892 427.339C395.443 427.424 394.994 427.48 394.49 427.606C395.009 427.676 395.457 427.732 395.906 427.816L395.892 427.872ZM448.864 509.196C449.263 509.221 449.652 509.336 450 509.532C450.305 509.714 450.558 509.971 450.737 510.277C450.916 510.584 451.015 510.93 451.024 511.285C451.033 511.817 451.193 512.336 451.486 512.78C451.779 513.225 452.193 513.577 452.678 513.795C453.154 513.985 453.675 514.034 454.178 513.935C454.627 513.837 455.076 513.781 455.581 513.655C455.132 513.528 454.683 513.486 454.178 513.388C453.783 513.357 453.402 513.227 453.071 513.01C452.77 512.818 452.523 512.553 452.353 512.238C452.184 511.924 452.098 511.572 452.103 511.215C452.102 510.813 452.011 510.417 451.837 510.055C451.663 509.693 451.409 509.375 451.096 509.123C450.783 508.872 450.417 508.694 450.026 508.602C449.635 508.51 449.229 508.507 448.836 508.593C448.388 508.691 447.953 508.747 447.434 508.873C447.995 508.957 448.472 509.014 448.878 509.112L448.864 509.196ZM422.785 465.52C423.185 465.54 423.574 465.655 423.92 465.856C424.227 466.035 424.482 466.29 424.659 466.598C424.836 466.905 424.929 467.254 424.93 467.609C424.934 468.151 425.094 468.681 425.393 469.134C425.692 469.587 426.115 469.944 426.613 470.161C427.086 470.361 427.609 470.415 428.113 470.315C428.562 470.217 429.01 470.161 429.515 470.034C429.066 469.908 428.618 469.852 428.113 469.768C427.719 469.732 427.339 469.602 427.005 469.389C426.69 469.195 426.434 468.919 426.264 468.591C426.094 468.262 426.015 467.894 426.038 467.525C426.034 467.124 425.942 466.729 425.767 466.369C425.591 466.009 425.338 465.692 425.025 465.443C424.712 465.193 424.347 465.016 423.957 464.925C423.567 464.834 423.162 464.831 422.771 464.917C422.322 465.001 421.873 465.057 421.369 465.183C421.901 465.281 422.35 465.337 422.799 465.435L422.785 465.52ZM363.054 510.29C362.66 510.253 362.28 510.124 361.946 509.911C361.643 509.72 361.395 509.452 361.228 509.134C361.06 508.817 360.979 508.461 360.993 508.102C360.973 507.59 360.814 507.094 360.532 506.666C360.25 506.239 359.857 505.896 359.394 505.677C359.394 506.041 359.31 506.378 359.282 506.714C359.47 506.896 359.619 507.114 359.72 507.355C359.821 507.596 359.873 507.855 359.871 508.116C359.875 508.659 360.035 509.189 360.334 509.642C360.633 510.095 361.056 510.451 361.554 510.668C362.027 510.869 362.55 510.922 363.054 510.822C363.503 510.724 363.951 510.668 364.456 510.542C363.965 510.346 363.517 510.29 363.068 510.205L363.054 510.29ZM374.523 473.456C374.923 473.476 375.313 473.591 375.659 473.792C375.966 473.972 376.221 474.228 376.4 474.535C376.579 474.842 376.676 475.189 376.683 475.545C376.686 476.087 376.847 476.617 377.146 477.07C377.444 477.523 377.868 477.88 378.365 478.097C378.838 478.298 379.361 478.352 379.866 478.251C380.314 478.153 380.749 478.097 381.198 477.97C380.749 477.844 380.314 477.788 379.866 477.704C379.47 477.673 379.089 477.543 378.758 477.325C378.453 477.135 378.203 476.867 378.033 476.55C377.863 476.233 377.78 475.876 377.79 475.517C377.772 474.972 377.595 474.444 377.281 473.999C376.967 473.553 376.53 473.208 376.024 473.007C375.542 472.838 375.023 472.804 374.523 472.909C374.075 473.007 373.626 473.049 373.121 473.175C373.64 473.217 374.159 473.273 374.537 473.371L374.523 473.456ZM444.994 428.966C445.394 428.997 445.782 429.117 446.13 429.316C446.437 429.497 446.692 429.752 446.871 430.059C447.05 430.366 447.148 430.714 447.154 431.069C447.157 431.612 447.318 432.142 447.617 432.594C447.915 433.047 448.339 433.404 448.836 433.621C449.306 433.817 449.824 433.866 450.323 433.761C450.771 433.677 451.22 433.621 451.725 433.495C451.276 433.369 450.827 433.313 450.323 433.228C449.928 433.192 449.549 433.063 449.215 432.85C448.916 432.653 448.672 432.384 448.505 432.068C448.339 431.752 448.255 431.399 448.261 431.041C448.243 430.496 448.066 429.969 447.752 429.523C447.438 429.077 447.001 428.733 446.495 428.531C446.013 428.363 445.494 428.329 444.994 428.433C444.546 428.517 444.097 428.573 443.592 428.7C444.111 428.742 444.56 428.798 445.009 428.882L444.994 428.966ZM506.688 488.781C507.083 488.807 507.466 488.922 507.81 489.117C508.116 489.297 508.371 489.553 508.551 489.86C508.73 490.167 508.827 490.515 508.833 490.87C508.834 491.415 508.994 491.948 509.293 492.404C509.592 492.859 510.017 493.218 510.516 493.436C510.992 493.626 511.513 493.675 512.016 493.576C512.465 493.478 512.914 493.422 513.419 493.296C512.97 493.17 512.521 493.127 512.016 493.029C511.622 492.996 511.241 492.866 510.909 492.651C510.608 492.459 510.36 492.194 510.191 491.879C510.022 491.565 509.936 491.213 509.941 490.856C509.942 490.455 509.853 490.059 509.68 489.697C509.508 489.335 509.256 489.016 508.944 488.765C508.632 488.513 508.267 488.335 507.876 488.243C507.486 488.151 507.08 488.148 506.688 488.234C506.24 488.332 505.791 488.388 505.286 488.514C505.833 488.557 506.282 488.557 506.73 488.697L506.688 488.781ZM482.179 452.325C482.578 452.35 482.966 452.466 483.315 452.662C483.619 452.844 483.873 453.1 484.052 453.407C484.231 453.713 484.329 454.06 484.338 454.415C484.339 454.96 484.499 455.492 484.797 455.948C485.096 456.404 485.521 456.763 486.021 456.981C486.497 457.171 487.018 457.219 487.521 457.121C487.97 457.023 488.419 456.981 488.923 456.854C488.475 456.728 488.026 456.672 487.521 456.574C487.127 456.547 486.746 456.422 486.413 456.209C486.113 456.014 485.867 455.745 485.698 455.429C485.529 455.113 485.442 454.759 485.446 454.401C485.427 453.856 485.25 453.328 484.936 452.883C484.623 452.437 484.186 452.092 483.679 451.891C483.199 451.717 482.68 451.679 482.179 451.779C481.73 451.877 481.296 451.933 480.847 452.059C481.338 452.101 481.772 452.101 482.221 452.185L482.179 452.325ZM409.464 376.204C409.162 376.466 408.802 376.654 408.413 376.751C408.072 376.843 407.713 376.845 407.372 376.756C407.03 376.668 406.717 376.492 406.464 376.246C406.079 375.861 405.59 375.596 405.058 375.484C404.525 375.372 403.971 375.417 403.463 375.615C402.99 375.818 402.586 376.154 402.3 376.582C402.047 376.961 401.767 377.311 401.542 377.718C401.949 377.494 402.3 377.213 402.678 376.961C402.985 376.711 403.345 376.533 403.73 376.442C404.081 376.368 404.446 376.384 404.789 376.49C405.133 376.595 405.444 376.786 405.693 377.045C405.978 377.336 406.326 377.558 406.71 377.695C407.093 377.832 407.503 377.88 407.908 377.835C408.313 377.791 408.703 377.655 409.048 377.438C409.393 377.221 409.684 376.928 409.899 376.582C410.152 376.204 410.432 375.839 410.656 375.433C410.236 375.531 409.885 375.811 409.507 376.064L409.464 376.204ZM482.011 428.265C481.712 428.529 481.357 428.72 480.973 428.826C480.629 428.912 480.268 428.91 479.925 428.819C479.582 428.728 479.267 428.552 479.01 428.307C478.625 427.927 478.138 427.666 477.608 427.557C477.078 427.448 476.528 427.494 476.024 427.69C475.551 427.888 475.147 428.219 474.86 428.643C474.608 429.022 474.327 429.373 474.103 429.779C474.509 429.555 474.86 429.274 475.238 429.022C475.544 428.769 475.904 428.592 476.29 428.503C476.639 428.429 477.002 428.445 477.343 428.551C477.684 428.656 477.993 428.847 478.239 429.106C478.526 429.394 478.874 429.614 479.257 429.75C479.641 429.885 480.05 429.932 480.454 429.888C480.858 429.843 481.247 429.708 481.592 429.493C481.936 429.278 482.228 428.987 482.445 428.643C482.698 428.265 482.978 427.914 483.203 427.508C482.754 427.704 482.403 427.984 482.011 428.265ZM436.764 331.111C436.465 331.375 436.11 331.566 435.726 331.672C435.382 331.765 435.02 331.766 434.675 331.675C434.331 331.584 434.016 331.404 433.763 331.153C433.377 330.771 432.888 330.508 432.355 330.399C431.822 330.289 431.269 330.337 430.763 330.536C430.291 330.734 429.886 331.066 429.599 331.49C429.347 331.882 429.066 332.233 428.842 332.64C429.249 332.415 429.613 332.135 429.992 331.882C430.292 331.63 430.647 331.453 431.029 331.364C431.38 331.289 431.743 331.304 432.086 331.407C432.429 331.51 432.741 331.697 432.992 331.952C433.275 332.246 433.622 332.472 434.005 332.611C434.389 332.751 434.799 332.801 435.205 332.758C435.611 332.714 436.002 332.579 436.347 332.362C436.693 332.144 436.984 331.851 437.199 331.504C437.451 331.111 437.731 330.761 437.956 330.354C437.507 330.564 437.143 330.831 436.764 331.083V331.111ZM435.853 359.869C435.821 360.264 435.701 360.648 435.502 360.991C435.324 361.299 435.069 361.555 434.761 361.735C434.454 361.914 434.105 362.011 433.749 362.014C433.207 362.018 432.677 362.179 432.224 362.477C431.771 362.776 431.415 363.199 431.198 363.697C431.003 364.172 430.949 364.692 431.043 365.197C431.141 365.646 431.198 366.094 431.324 366.599C431.45 366.15 431.506 365.702 431.59 365.197C431.623 364.802 431.753 364.422 431.969 364.089C432.164 363.789 432.433 363.543 432.749 363.374C433.065 363.205 433.419 363.118 433.777 363.122C434.177 363.121 434.572 363.03 434.932 362.856C435.292 362.683 435.609 362.431 435.859 362.119C436.109 361.807 436.286 361.443 436.377 361.054C436.469 360.664 436.471 360.259 436.385 359.869C436.301 359.42 436.245 358.972 436.119 358.467C436.021 358.972 435.965 359.42 435.853 359.869ZM425.168 438.697C425.139 439.097 425.019 439.485 424.818 439.832C424.638 440.139 424.382 440.394 424.075 440.573C423.768 440.752 423.421 440.85 423.065 440.856C422.523 440.86 421.993 441.02 421.54 441.319C421.087 441.618 420.73 442.041 420.513 442.539C420.323 443.015 420.274 443.536 420.373 444.039C420.457 444.488 420.513 444.936 420.639 445.441C420.766 444.992 420.822 444.544 420.92 444.039C420.94 443.644 421.066 443.261 421.284 442.931C421.48 442.631 421.749 442.385 422.065 442.215C422.381 442.046 422.735 441.96 423.093 441.964C423.638 441.945 424.166 441.768 424.611 441.454C425.057 441.14 425.402 440.704 425.603 440.197C425.78 439.717 425.814 439.196 425.701 438.697C425.617 438.262 425.561 437.813 425.435 437.365C425.337 437.813 425.281 438.262 425.196 438.697H425.168ZM481.113 369.992H480.889C480.344 369.993 479.811 370.153 479.356 370.452C478.9 370.75 478.541 371.175 478.323 371.675C478.133 372.151 478.084 372.672 478.183 373.175C478.267 373.624 478.323 374.072 478.449 374.577C478.576 374.129 478.632 373.68 478.73 373.175C478.759 372.782 478.884 372.401 479.094 372.067C479.29 371.767 479.558 371.521 479.875 371.352C480.191 371.183 480.545 371.096 480.903 371.1C481.152 371.1 481.398 371.058 481.632 370.974L481.113 369.992ZM480.721 497.362C480.7 497.762 480.585 498.151 480.384 498.498C480.204 498.804 479.949 499.059 479.642 499.238C479.335 499.418 478.987 499.515 478.632 499.521C478.089 499.525 477.559 499.686 477.106 499.984C476.653 500.283 476.297 500.706 476.08 501.204C475.885 501.679 475.831 502.199 475.925 502.704C476.024 503.153 476.08 503.601 476.206 504.106C476.332 503.671 476.388 503.223 476.472 502.704C476.503 502.309 476.634 501.928 476.851 501.596C477.042 501.291 477.309 501.041 477.626 500.872C477.944 500.702 478.3 500.618 478.66 500.629C479.204 500.61 479.732 500.433 480.178 500.119C480.623 499.806 480.968 499.369 481.169 498.862C481.338 498.38 481.372 497.862 481.268 497.362C481.184 496.913 481.127 496.465 481.001 495.96C480.903 496.465 480.847 496.969 480.721 497.362ZM504.795 425.853C504.8 425.89 504.8 425.928 504.795 425.965C504.617 426.274 504.362 426.53 504.055 426.71C503.747 426.889 503.399 426.985 503.043 426.989C502.5 426.992 501.97 427.153 501.517 427.452C501.064 427.751 500.708 428.174 500.491 428.671C500.29 429.145 500.237 429.667 500.337 430.172C500.435 430.62 500.491 431.069 500.617 431.574C500.743 431.125 500.799 430.677 500.883 430.172C500.92 429.778 501.049 429.398 501.262 429.064C501.455 428.761 501.723 428.513 502.039 428.343C502.356 428.174 502.712 428.089 503.071 428.097C503.491 428.085 503.903 427.98 504.276 427.788C504.65 427.597 504.976 427.323 505.23 426.989L504.795 425.853ZM381.73 441.529C381.706 441.924 381.59 442.308 381.394 442.651C381.214 442.957 380.958 443.212 380.651 443.391C380.344 443.571 379.996 443.668 379.641 443.674C379.096 443.675 378.563 443.835 378.108 444.133C377.652 444.432 377.293 444.857 377.075 445.357C376.885 445.833 376.836 446.354 376.935 446.857C377.033 447.306 377.075 447.755 377.201 448.259C377.328 447.811 377.384 447.362 377.482 446.857C377.517 446.465 377.642 446.086 377.846 445.749C378.042 445.449 378.311 445.203 378.627 445.034C378.943 444.865 379.297 444.778 379.655 444.782C380.202 444.766 380.733 444.59 381.181 444.276C381.63 443.962 381.977 443.524 382.179 443.015C382.342 442.537 382.376 442.024 382.277 441.529C382.179 441.08 382.123 440.632 381.997 440.127C381.871 440.632 381.828 441.08 381.73 441.529ZM384.689 370.876L383.974 373.217C384.241 372.952 384.447 372.631 384.577 372.278C384.733 371.828 384.771 371.345 384.689 370.876ZM409.927 324.788C409.898 325.188 409.778 325.576 409.577 325.923C409.397 326.23 409.141 326.485 408.834 326.664C408.527 326.843 408.179 326.941 407.824 326.947C407.281 326.95 406.752 327.111 406.299 327.41C405.846 327.709 405.489 328.132 405.272 328.629C405.077 329.104 405.024 329.625 405.118 330.13C405.216 330.578 405.272 331.027 405.398 331.532C405.524 331.083 405.581 330.634 405.665 330.13C405.696 329.735 405.826 329.354 406.043 329.022C406.239 328.722 406.507 328.475 406.824 328.306C407.14 328.137 407.493 328.051 407.852 328.055C408.397 328.036 408.924 327.859 409.37 327.545C409.816 327.231 410.16 326.794 410.362 326.288C410.531 325.806 410.564 325.287 410.46 324.788C410.376 324.353 410.32 323.904 410.194 323.456C410.081 323.904 410.025 324.353 409.941 324.788H409.927ZM402.987 395.89C402.966 396.29 402.851 396.679 402.65 397.025C402.47 397.332 402.214 397.587 401.907 397.766C401.601 397.945 401.253 398.043 400.897 398.049C400.356 398.051 399.828 398.21 399.375 398.506C398.922 398.802 398.565 399.223 398.346 399.717C398.145 400.191 398.091 400.713 398.191 401.218C398.29 401.666 398.346 402.115 398.472 402.62C398.598 402.171 398.654 401.723 398.738 401.218C398.774 400.824 398.904 400.444 399.117 400.11C399.311 399.809 399.58 399.564 399.897 399.397C400.213 399.23 400.568 399.147 400.925 399.157C401.47 399.138 401.998 398.961 402.444 398.647C402.889 398.333 403.234 397.896 403.435 397.39C403.604 396.908 403.638 396.389 403.533 395.89C403.449 395.441 403.393 394.992 403.267 394.488C403.155 394.992 403.099 395.441 403.001 395.89H402.987ZM465.199 405.452C465.174 405.847 465.059 406.231 464.863 406.574C464.683 406.88 464.427 407.135 464.12 407.315C463.813 407.494 463.465 407.591 463.11 407.597C462.565 407.598 462.032 407.758 461.577 408.057C461.121 408.355 460.762 408.781 460.544 409.28C460.354 409.756 460.305 410.277 460.404 410.78C460.502 411.229 460.544 411.678 460.67 412.182C460.797 411.734 460.853 411.285 460.951 410.78C460.988 410.389 461.113 410.01 461.315 409.673C461.511 409.372 461.779 409.126 462.096 408.957C462.412 408.788 462.766 408.701 463.124 408.705C463.671 408.689 464.202 408.513 464.65 408.199C465.099 407.885 465.446 407.447 465.648 406.938C465.811 406.46 465.844 405.948 465.746 405.452C465.648 405.004 465.592 404.555 465.466 404.05C465.297 404.555 465.297 405.004 465.213 405.452H465.199ZM407.712 485.29C407.683 485.685 407.563 486.069 407.361 486.411C407.183 486.719 406.928 486.976 406.621 487.156C406.313 487.335 405.965 487.431 405.609 487.435C405.066 487.438 404.536 487.599 404.083 487.898C403.63 488.196 403.274 488.62 403.057 489.117C402.86 489.592 402.811 490.115 402.917 490.618C403.001 491.066 403.057 491.515 403.183 492.02C403.309 491.571 403.365 491.122 403.449 490.618C403.485 490.224 403.615 489.844 403.828 489.51C404.024 489.21 404.292 488.963 404.608 488.794C404.924 488.625 405.278 488.539 405.637 488.542C406.037 488.541 406.431 488.451 406.791 488.277C407.152 488.104 407.468 487.852 407.718 487.54C407.969 487.228 408.146 486.864 408.237 486.474C408.328 486.085 408.33 485.68 408.245 485.29C408.16 484.841 408.104 484.392 407.978 483.887C407.81 484.35 407.81 484.841 407.726 485.29H407.712ZM455.959 380.775C456.258 380.511 456.613 380.319 456.997 380.214C457.341 380.128 457.702 380.13 458.045 380.221C458.388 380.311 458.703 380.488 458.96 380.733C459.343 381.115 459.83 381.378 460.36 381.49C460.89 381.602 461.441 381.558 461.946 381.364C462.42 381.16 462.824 380.824 463.11 380.396C463.362 380.018 463.643 379.667 463.867 379.26C463.461 379.485 463.11 379.765 462.731 380.018C462.426 380.27 462.066 380.448 461.68 380.536C461.331 380.611 460.968 380.594 460.627 380.489C460.286 380.383 459.977 380.192 459.731 379.933C459.444 379.645 459.096 379.425 458.713 379.29C458.329 379.155 457.92 379.107 457.516 379.152C457.112 379.196 456.723 379.331 456.378 379.547C456.034 379.762 455.742 380.052 455.524 380.396C455.272 380.775 454.992 381.125 454.767 381.532C455.23 381.308 455.581 381.027 455.973 380.775H455.959ZM419.658 413.641C419.96 413.378 420.321 413.191 420.71 413.094C421.053 413.002 421.413 413 421.757 413.088C422.101 413.177 422.417 413.352 422.673 413.599C423.056 413.981 423.542 414.244 424.072 414.356C424.602 414.468 425.154 414.424 425.659 414.23C426.132 414.026 426.537 413.69 426.823 413.262C427.075 412.883 427.356 412.533 427.58 412.126C427.173 412.351 426.823 412.631 426.444 412.883C426.139 413.136 425.779 413.314 425.393 413.402C425.041 413.475 424.677 413.458 424.334 413.353C423.991 413.247 423.68 413.057 423.43 412.799C423.144 412.509 422.797 412.286 422.413 412.15C422.029 412.013 421.619 411.965 421.214 412.009C420.809 412.054 420.42 412.19 420.075 412.407C419.73 412.624 419.439 412.916 419.223 413.262C418.971 413.641 418.691 414.005 418.466 414.412C418.943 414.244 419.293 413.893 419.672 413.641H419.658ZM395.079 462.07C395.381 461.812 395.734 461.621 396.116 461.509C396.461 461.423 396.821 461.426 397.164 461.516C397.508 461.607 397.822 461.783 398.079 462.028C398.466 462.411 398.955 462.673 399.488 462.783C400.021 462.892 400.574 462.844 401.08 462.645C401.552 462.447 401.956 462.116 402.244 461.692C402.496 461.313 402.776 460.949 403.001 460.542C402.594 460.78 402.244 461.047 401.851 461.299C401.558 461.562 401.199 461.741 400.813 461.818C400.463 461.898 400.098 461.886 399.754 461.783C399.41 461.679 399.099 461.489 398.85 461.229C398.452 460.855 397.954 460.605 397.416 460.51C396.878 460.416 396.324 460.48 395.822 460.696C395.361 460.915 394.972 461.26 394.7 461.692C394.448 462.07 394.167 462.421 393.943 462.827C394.364 462.603 394.714 462.323 395.093 462.07H395.079ZM405.721 512.393C406.02 512.133 406.375 511.946 406.758 511.846C407.101 511.754 407.462 511.752 407.806 511.84C408.15 511.929 408.465 512.105 408.721 512.351C409.106 512.736 409.595 513 410.128 513.113C410.661 513.225 411.215 513.179 411.722 512.982C412.195 512.778 412.599 512.442 412.886 512.014C413.138 511.636 413.418 511.285 413.643 510.878C413.236 511.103 412.886 511.383 412.493 511.636C412.193 511.888 411.837 512.065 411.456 512.154C411.104 512.23 410.739 512.214 410.395 512.109C410.052 512.003 409.741 511.811 409.493 511.551C409.207 511.261 408.859 511.038 408.476 510.902C408.092 510.765 407.682 510.717 407.277 510.761C406.872 510.806 406.482 510.942 406.137 511.159C405.793 511.376 405.502 511.668 405.286 512.014C405.034 512.393 404.753 512.757 404.529 513.15C405.006 512.912 405.342 512.631 405.721 512.393ZM453.295 457.107C453.594 456.843 453.949 456.651 454.333 456.546C454.677 456.46 455.038 456.462 455.381 456.553C455.724 456.643 456.039 456.82 456.296 457.065C456.682 457.447 457.172 457.709 457.704 457.819C458.237 457.929 458.79 457.881 459.296 457.682C459.765 457.483 460.165 457.152 460.446 456.728C460.698 456.35 460.979 455.985 461.217 455.578C460.811 455.817 460.446 456.083 460.067 456.336C459.769 456.599 459.406 456.778 459.016 456.854C458.668 456.935 458.305 456.923 457.963 456.819C457.621 456.716 457.312 456.525 457.067 456.265C456.669 455.891 456.17 455.642 455.632 455.547C455.094 455.452 454.54 455.517 454.038 455.733C453.571 455.947 453.177 456.293 452.903 456.728C452.65 457.107 452.384 457.457 452.145 457.864C452.552 457.625 452.917 457.345 453.295 457.093V457.107ZM486.035 477.143C486.337 476.885 486.691 476.694 487.072 476.582C487.417 476.496 487.777 476.498 488.121 476.589C488.464 476.68 488.779 476.856 489.035 477.101C489.422 477.484 489.911 477.746 490.444 477.855C490.977 477.965 491.53 477.917 492.036 477.718C492.508 477.52 492.913 477.189 493.2 476.765C493.452 476.386 493.733 476.035 493.957 475.629C493.55 475.853 493.2 476.134 492.807 476.386C492.507 476.638 492.151 476.816 491.77 476.905C491.418 476.98 491.053 476.965 490.71 476.859C490.366 476.754 490.055 476.562 489.807 476.302C489.521 476.011 489.173 475.789 488.79 475.652C488.406 475.515 487.996 475.467 487.591 475.512C487.186 475.556 486.796 475.692 486.452 475.909C486.107 476.126 485.816 476.419 485.6 476.765C485.348 477.143 485.067 477.494 484.843 477.9C485.292 477.662 485.656 477.339 486.035 477.129V477.143ZM430.959 492.342C431.26 492.081 431.614 491.89 431.997 491.781C432.341 491.695 432.702 491.698 433.045 491.788C433.388 491.879 433.703 492.055 433.96 492.3C434.346 492.683 434.836 492.945 435.368 493.055C435.901 493.164 436.454 493.116 436.96 492.917C437.433 492.719 437.837 492.388 438.124 491.964C438.376 491.585 438.643 491.221 438.881 490.814C438.475 491.052 438.11 491.333 437.731 491.585C437.428 491.84 437.067 492.018 436.68 492.104C436.331 492.178 435.968 492.162 435.627 492.057C435.286 491.951 434.977 491.76 434.731 491.501C434.333 491.127 433.834 490.877 433.296 490.782C432.758 490.688 432.204 490.752 431.702 490.968C431.245 491.192 430.857 491.536 430.581 491.964C430.328 492.342 430.048 492.693 429.809 493.099C430.244 492.875 430.581 492.595 430.959 492.342ZM501.991 512.393C502.29 512.133 502.645 511.946 503.029 511.846C503.372 511.754 503.733 511.752 504.077 511.84C504.42 511.929 504.736 512.105 504.992 512.351C505.377 512.736 505.865 513 506.398 513.113C506.931 513.225 507.485 513.179 507.992 512.982C508.466 512.778 508.87 512.442 509.156 512.014C509.408 511.636 509.689 511.285 509.913 510.878C509.507 511.103 509.156 511.383 508.763 511.636C508.463 511.888 508.108 512.065 507.726 512.154C507.374 512.229 507.01 512.212 506.666 512.107C506.323 512.001 506.012 511.81 505.763 511.551C505.477 511.261 505.13 511.038 504.746 510.902C504.362 510.765 503.952 510.717 503.547 510.761C503.142 510.806 502.753 510.942 502.408 511.159C502.063 511.376 501.772 511.668 501.556 512.014C501.304 512.393 501.024 512.757 500.799 513.15C501.262 512.912 501.613 512.631 501.991 512.393ZM514.61 457.934C514.275 457.835 513.971 457.651 513.727 457.401C513.442 457.11 513.094 456.888 512.71 456.751C512.326 456.614 511.916 456.566 511.511 456.611C511.106 456.656 510.717 456.791 510.372 457.009C510.027 457.226 509.736 457.518 509.521 457.864C509.268 458.242 508.988 458.593 508.763 459C509.17 458.775 509.521 458.495 509.899 458.242C510.201 457.984 510.555 457.793 510.937 457.682C511.281 457.595 511.642 457.598 511.985 457.688C512.328 457.779 512.643 457.955 512.9 458.2C513.416 458.72 514.116 459.017 514.849 459.028L514.61 457.934ZM380.216 499.283C380.518 499.024 380.872 498.833 381.254 498.722C381.598 498.636 381.959 498.638 382.302 498.729C382.645 498.82 382.96 498.996 383.217 499.241C383.601 499.626 384.09 499.891 384.623 500.003C385.156 500.115 385.71 500.069 386.217 499.872C386.69 499.669 387.095 499.332 387.381 498.904C387.633 498.526 387.914 498.175 388.138 497.769C387.731 497.993 387.381 498.273 386.988 498.526C386.688 498.778 386.333 498.955 385.951 499.044C385.599 499.119 385.235 499.102 384.891 498.997C384.548 498.891 384.237 498.7 383.988 498.442C383.702 498.151 383.355 497.929 382.971 497.792C382.587 497.655 382.177 497.607 381.772 497.651C381.367 497.696 380.978 497.832 380.633 498.049C380.288 498.266 379.997 498.558 379.781 498.904C379.529 499.283 379.249 499.647 379.024 500.04C379.543 499.774 379.894 499.521 380.272 499.269L380.216 499.283ZM376.164 414.804C376.459 414.536 376.815 414.343 377.201 414.244C377.545 414.15 377.908 414.149 378.252 414.24C378.597 414.331 378.911 414.511 379.164 414.762C379.551 415.145 380.04 415.407 380.573 415.517C381.106 415.626 381.659 415.579 382.165 415.379C382.633 415.181 383.033 414.85 383.315 414.426C383.567 414.033 383.848 413.683 384.086 413.276C383.679 413.5 383.315 413.781 382.936 414.033C382.639 414.299 382.276 414.478 381.885 414.552C381.536 414.63 381.174 414.616 380.833 414.513C380.492 414.41 380.182 414.22 379.936 413.963C379.538 413.589 379.039 413.339 378.501 413.245C377.963 413.15 377.409 413.214 376.907 413.43C376.444 413.645 376.05 413.985 375.771 414.412C375.519 414.804 375.252 415.155 375.014 415.562C375.477 415.323 375.841 415.043 376.22 414.79L376.164 414.804Z" fill="white"/>
<path d="M385.095 368.071C383.553 373.68 382.057 379.288 380.609 384.897C380.791 382.443 381.057 380.004 381.38 377.564C381.38 377.424 381.183 377.354 381.141 377.564C380.544 380.59 380.211 383.663 380.146 386.748C378.407 393.525 376.781 400.325 375.266 407.149C372.392 420.231 369.826 433.425 367.695 446.647C366.503 454.12 365.578 461.622 364.302 469.081C364.302 469.221 364.498 469.277 364.526 469.081C365.69 462.477 367.246 455.915 368.732 449.353C370.219 442.791 371.537 436.313 372.939 429.793C375.659 416.655 378.547 403.559 381.239 390.435C382.768 383.032 384.184 375.615 385.712 368.226C385.722 368.185 385.724 368.143 385.718 368.102C385.712 368.06 385.698 368.021 385.676 367.985C385.633 367.913 385.563 367.861 385.481 367.84C385.399 367.82 385.313 367.832 385.24 367.876C385.168 367.919 385.116 367.99 385.095 368.071Z" fill="#2A3042"/>
<path d="M378.519 280.733C380.384 290.94 374.636 300.545 365.676 302.185C356.716 303.826 347.953 296.871 346.046 286.664C344.139 276.456 349.916 266.837 358.876 265.211C367.835 263.584 376.655 270.525 378.519 280.733Z" fill="#455A64"/>
<path d="M383.89 280.41C385.965 291.767 379.571 302.452 369.616 304.246C359.661 306.041 349.888 298.343 347.813 286.986C345.738 275.629 352.131 264.945 362.087 263.15C372.042 261.355 381.814 269.053 383.89 280.41Z" fill="#C7C7C7"/>
<path d="M412.311 360.556C422.462 360.556 435.376 341.824 438.951 328.307C439.19 327.382 427.902 295.595 426.332 289.047C426.01 287.645 387.787 308.93 387.787 308.93C387.787 308.93 395.135 321.647 397.827 333.046C398.079 334.07 402.496 360.598 412.311 360.556Z" fill="#FAC4BB"/>
<path d="M402.552 335.528C401.226 335.896 399.87 336.145 398.5 336.271C398.331 335.472 398.191 334.799 398.093 334.28C398.098 334.257 398.098 334.233 398.093 334.21C398.1 334.149 398.1 334.088 398.093 334.027C398.093 333.831 398.023 333.621 397.967 333.41C397.973 333.369 397.973 333.326 397.967 333.284V333.116C397.346 330.569 396.578 328.059 395.667 325.601C393.882 320.84 391.793 316.199 389.414 311.705C389.218 311.332 389.035 310.995 388.867 310.696L387.97 309.041L388.979 308.467L390.381 307.723L391.279 307.233L392.386 306.616L393.41 306.055L393.606 305.943L395.008 305.214L395.317 305.045L396.649 304.316L397.35 303.938L399.509 302.76L401.164 301.862L402.566 301.105L407.361 298.525L408.904 297.684L414.442 294.768L415.634 294.151L416.223 293.66L417.162 293.169L419.181 292.146L420.415 291.529C421.018 291.22 421.579 290.954 422.112 290.702C422.378 290.561 422.644 290.449 422.883 290.337C423.612 289.986 424.285 289.706 424.762 289.496L425.098 289.355C425.575 300.46 424.635 329.611 402.552 335.528Z" fill="#2A3042"/>
<path d="M414.905 239.917C423.948 252.662 430.118 296.1 423.079 308.621C412.872 326.737 389.358 335.977 372.252 322.152C355.679 308.761 348.654 252.045 357.151 239.931C369.658 222.152 401.528 221.114 414.905 239.917Z" fill="#FAC4BB"/>
<path d="M382.571 278.237C382.571 278.111 382.81 278.335 382.824 278.461C383.16 281.392 384.044 284.701 386.834 285.29C386.918 285.29 386.932 285.458 386.834 285.458C383.469 285.514 382.347 281.111 382.571 278.237Z" fill="#2A3042"/>
<path d="M384.661 274.829C389.316 273.792 391.069 283.242 386.75 284.14C382.431 285.037 380.763 275.713 384.661 274.829Z" fill="#2A3042"/>
<path d="M366.531 281.714C366.531 281.602 366.335 281.882 366.349 282.008C366.994 284.897 367.232 288.304 364.778 289.762C364.708 289.762 364.778 289.958 364.778 289.93C367.961 288.879 367.597 284.35 366.531 281.714Z" fill="#2A3042"/>
<path d="M363.376 279.162C358.637 279.681 360.011 289.117 364.414 288.64C368.817 288.164 367.344 278.727 363.376 279.162Z" fill="#2A3042"/>
<path d="M387.563 269.824C386.263 269.695 384.971 269.493 383.693 269.221C382.292 269.195 380.94 268.702 379.851 267.819C379.564 267.477 379.397 267.052 379.374 266.606C379.351 266.161 379.475 265.72 379.725 265.351C380.34 264.708 381.114 264.24 381.969 263.994C382.823 263.747 383.728 263.732 384.591 263.949C386.407 264.121 388.096 264.96 389.33 266.305C389.599 266.625 389.768 267.018 389.816 267.434C389.865 267.85 389.79 268.27 389.603 268.645C389.415 269.019 389.122 269.33 388.759 269.539C388.397 269.749 387.981 269.848 387.563 269.824Z" fill="#2A3042"/>
<path d="M358.862 275.11C360.072 274.622 361.257 274.069 362.409 273.456C363.739 273.037 364.897 272.195 365.704 271.058C365.886 270.651 365.929 270.195 365.825 269.761C365.721 269.327 365.476 268.94 365.129 268.66C364.362 268.209 363.488 267.971 362.598 267.971C361.708 267.971 360.835 268.209 360.067 268.66C358.361 269.321 356.968 270.603 356.17 272.25C356.007 272.633 355.959 273.056 356.032 273.466C356.105 273.876 356.296 274.255 356.582 274.559C356.867 274.862 357.235 275.076 357.64 275.174C358.044 275.272 358.469 275.249 358.862 275.11Z" fill="#2A3042"/>
<path d="M390.984 304.555C390.423 305.368 389.905 306.434 388.867 306.714C387.78 306.899 386.667 306.851 385.6 306.574C385.578 306.565 385.553 306.563 385.531 306.571C385.508 306.579 385.489 306.594 385.477 306.615C385.465 306.635 385.461 306.66 385.465 306.683C385.47 306.707 385.483 306.728 385.502 306.742C386.024 307.236 386.669 307.579 387.371 307.735C388.072 307.89 388.802 307.853 389.484 307.626C390.047 307.363 390.52 306.938 390.842 306.407C391.164 305.875 391.321 305.26 391.293 304.639C391.307 304.457 391.068 304.443 390.984 304.555Z" fill="#2A3042"/>
<path d="M386.315 296.464C385.789 297.748 385.002 298.908 384.006 299.874C383.009 300.839 381.824 301.587 380.524 302.073C379.398 302.518 378.212 302.796 377.005 302.9C376.772 302.92 376.537 302.92 376.304 302.9C376.089 302.914 375.874 302.914 375.659 302.9C375.498 302.901 375.342 302.849 375.213 302.753C375.084 302.657 374.989 302.522 374.944 302.367C374.936 302.269 374.936 302.171 374.944 302.073V301.82C374.467 299.591 374.047 296.212 374.047 296.212C373.304 296.773 369.49 299.423 369.335 298.245C368.102 288.43 366.727 277.578 367.569 267.58C367.583 267.518 367.618 267.463 367.667 267.424C367.717 267.384 367.779 267.362 367.842 267.362C367.906 267.362 367.967 267.384 368.017 267.424C368.067 267.463 368.101 267.518 368.116 267.58C369.672 276.947 369.518 286.509 370.99 295.931C372.341 294.964 373.824 294.194 375.393 293.646C375.729 293.646 376.08 300.306 376.374 301.288V301.4C380.216 301.175 382.838 299.507 386.021 296.296C386.175 296.016 386.441 296.17 386.315 296.464Z" fill="#2A3042"/>
<path d="M378.113 301.512C379.633 302.891 381.482 303.857 383.483 304.317C384.583 304.522 385.72 304.38 386.736 303.91C388.937 302.872 388.601 300.727 387.83 298.988C387.417 298.065 386.894 297.194 386.273 296.395C384.169 298.928 381.31 300.721 378.113 301.512Z" fill="#2A3042"/>
<path d="M383.483 304.274C384.583 304.48 385.72 304.338 386.736 303.868C388.937 302.83 388.601 300.685 387.829 298.946C385.376 299.675 383.244 301.821 383.483 304.274Z" fill="#FF99BA"/>
<path opacity="0.2" d="M413.278 258.158C416.167 261.818 422.476 270.595 424.622 270.707C422.406 256.56 418.803 244.207 413.166 237.631C410.835 234.915 408.026 232.649 404.88 230.943C405.693 234.673 410.208 254.401 413.278 258.158Z" fill="#2A3042"/>
<path d="M371.13 249.563C372.879 251.203 375.02 252.367 377.347 252.944C379.674 253.521 382.11 253.491 384.422 252.858C386.791 252.214 388.955 250.974 390.707 249.256C392.46 247.537 393.743 245.399 394.434 243.043C394.434 243.014 394.445 242.985 394.466 242.964C394.487 242.943 394.516 242.931 394.546 242.931C394.576 242.931 394.604 242.943 394.625 242.964C394.646 242.985 394.658 243.014 394.658 243.043C394.14 245.571 392.943 247.91 391.197 249.809C389.45 251.709 387.22 253.097 384.745 253.826C382.27 254.401 379.687 254.316 377.255 253.578C374.823 252.839 372.629 251.474 370.892 249.619C370.903 249.599 370.919 249.582 370.937 249.569C370.956 249.555 370.977 249.545 370.999 249.54C371.021 249.535 371.044 249.534 371.067 249.538C371.09 249.542 371.111 249.551 371.13 249.563Z" fill="#2A3042"/>
<path d="M381.702 213.43C389.821 212.701 397.757 216.347 401.332 221.535C403.329 224.484 404.268 228.023 403.996 231.574C403.996 231.714 403.702 231.714 403.702 231.574C403.526 228.479 402.522 225.488 400.796 222.913C399.069 220.338 396.683 218.274 393.887 216.936C390.81 215.374 387.412 214.549 383.962 214.525C380.512 214.5 377.103 215.278 374.005 216.795C370.969 218.203 368.537 220.65 367.148 223.694C367.022 224.002 366.391 223.876 366.489 223.568C368.073 218.254 374.355 214.103 381.702 213.43Z" fill="#2A3042"/>
<path d="M336.652 236.285C337.526 232.136 339.841 228.43 343.186 225.825C347.799 222.193 353.477 222.011 359.1 221.955C359.254 221.955 359.268 222.193 359.1 222.193C354.305 222.264 349.439 222.614 345.331 225.334C341.921 227.56 339.389 230.9 338.166 234.785C337.025 238.764 337.355 243.022 339.095 246.778C340.836 250.535 343.871 253.539 347.645 255.242C349.844 256.164 352.209 256.626 354.594 256.599C356.979 256.573 359.333 256.058 361.512 255.087C361.68 255.017 361.848 255.256 361.666 255.34C358.735 256.78 355.46 257.375 352.209 257.059C348.959 256.742 345.861 255.527 343.262 253.548C340.664 251.57 338.667 248.907 337.497 245.858C336.327 242.808 336.03 239.494 336.638 236.285H336.652Z" fill="#2A3042"/>
<path d="M419.434 249.198C419.434 249.198 425.421 233.775 418.031 226.203C413.825 221.885 401.837 223.918 401.837 223.918C399.953 221.72 397.652 219.917 395.067 218.612C392.483 217.308 389.665 216.528 386.778 216.318C376.402 215.183 365.073 222.502 365.073 222.502C365.073 222.502 354.823 218.127 346.425 224.325C334.731 232.962 338.545 251.876 351.879 256.574C361.259 259.841 372.364 250.587 372.364 250.587C373.542 250.587 386.231 256.349 393.957 244.726C393.957 244.726 401.991 250.334 407.978 245.048C409.232 246.831 411.003 248.185 413.052 248.928C415.101 249.67 417.329 249.765 419.434 249.198Z" fill="#2A3042"/>
<path d="M388.657 291.01C386.998 291.116 385.334 290.894 383.761 290.355C382.189 289.817 380.738 288.973 379.492 287.872C378.247 286.771 377.231 285.435 376.503 283.94C375.776 282.445 375.351 280.822 375.253 279.162C375.106 276.807 375.624 274.457 376.746 272.381C377.868 270.305 379.55 268.585 381.6 267.416C383.651 266.248 385.988 265.678 388.346 265.771C390.704 265.864 392.989 266.617 394.941 267.944C396.893 269.27 398.434 271.118 399.388 273.276C400.343 275.435 400.673 277.818 400.341 280.154C400.01 282.491 399.029 284.688 397.511 286.495C395.994 288.303 394 289.648 391.756 290.379C390.754 290.72 389.712 290.932 388.657 291.01ZM376.963 279.05C377.097 281.211 377.869 283.284 379.181 285.006C380.494 286.729 382.287 288.024 384.335 288.727C386.382 289.431 388.593 289.511 390.686 288.959C392.78 288.407 394.663 287.246 396.097 285.624C397.531 284.002 398.452 281.991 398.744 279.845C399.035 277.699 398.684 275.516 397.735 273.57C396.785 271.623 395.28 270.003 393.41 268.912C391.54 267.821 389.388 267.309 387.227 267.44C386.317 267.5 385.418 267.67 384.549 267.945C382.233 268.695 380.232 270.193 378.86 272.202C377.487 274.212 376.82 276.62 376.963 279.05Z" fill="#FF6330"/>
<path d="M362.423 296.072C357.333 297.067 352.089 292.314 350.757 285.472C350.092 282.386 350.411 279.169 351.669 276.274C352.136 275 352.924 273.867 353.956 272.987C354.989 272.106 356.231 271.506 357.563 271.245C358.895 270.984 360.272 271.072 361.56 271.498C362.849 271.924 364.005 272.676 364.919 273.68C367.174 275.883 368.684 278.736 369.237 281.84C370.499 288.318 367.835 294.459 363.222 295.861C362.96 295.948 362.693 296.018 362.423 296.072ZM353.211 276.989C352.095 279.558 351.815 282.413 352.412 285.149C353.575 291.066 357.922 295.231 362.1 294.417C366.279 293.604 368.732 288.108 367.583 282.177C367.094 279.419 365.761 276.882 363.769 274.914C363.02 274.132 362.094 273.542 361.069 273.193C360.044 272.844 358.95 272.747 357.88 272.909C357.67 272.94 357.463 272.992 357.263 273.063C356.353 273.401 355.522 273.924 354.825 274.6C354.127 275.276 353.578 276.089 353.211 276.989Z" fill="#FF6330"/>
<path d="M375.954 280.508L376.781 279.036C374.579 277.816 369.77 276.54 367.415 280.438L368.817 281.335C370.99 277.844 375.757 280.41 375.954 280.508Z" fill="#FF6330"/>
<path d="M431.898 272.866L433.231 271.815C432.74 271.198 428.323 265.786 424.495 265.912C420.934 266.038 399.089 272.474 398.163 272.754L398.64 274.381C404.907 272.516 421.789 267.693 424.551 267.594C427.075 267.524 430.707 271.38 431.898 272.866Z" fill="#FF6330"/>
<path d="M417.274 276.218C417.274 276.218 422.448 260.009 429.529 261.411C436.61 262.813 435.614 284.364 429.333 289.215C428.571 289.893 427.68 290.41 426.713 290.735C425.746 291.059 424.723 291.184 423.707 291.103C422.69 291.022 421.701 290.736 420.798 290.262C419.894 289.788 419.097 289.136 418.452 288.346L417.274 276.218Z" fill="#DD6A57"/>
<path d="M429.094 267.581C429.206 267.581 429.277 267.693 429.192 267.763C424.832 271.324 423.654 276.765 423.304 282.121C424.215 279.821 425.911 278.181 428.912 279.176C429.08 279.176 429.01 279.471 428.912 279.485C427.949 279.479 427.008 279.77 426.217 280.32C425.426 280.87 424.825 281.651 424.495 282.555C423.957 284.071 423.585 285.642 423.388 287.238C423.289 287.757 422.42 287.771 422.434 287.238V287.112C420.303 280.761 422.476 270.343 429.094 267.581Z" fill="#2A3042"/>
<path d="M425.098 263.935C425.098 263.935 424.089 241.235 416.111 229.555C407.221 216.543 382.684 207.836 365.129 222.544C365.129 222.544 390.62 215.912 407.319 231.588C414.989 238.795 417.653 265.407 417.653 265.407L425.098 263.935Z" fill="#C7C7C7"/>
<path d="M425.622 296.626C435.7 295.605 442.925 285.464 441.76 273.977C440.595 262.49 431.482 254.006 421.404 255.028C411.327 256.05 404.102 266.191 405.267 277.678C406.432 289.165 415.545 297.648 425.622 296.626Z" fill="#C7C7C7"/>
<path d="M410.53 276.47C411.582 286.804 419.77 294.431 428.828 293.506C437.886 292.58 444.378 283.467 443.34 273.147C442.302 262.827 434.1 255.2 425.028 256.111C415.956 257.022 409.479 266.15 410.53 276.47Z" fill="#455A64"/>
<path d="M465.704 337.743C492.877 366.852 557.53 476.078 536.568 496.184C515.606 516.291 399.299 489.173 366.629 473.652C356.899 469.025 393.831 408.425 405.258 407.009C414.765 405.831 463.39 428.041 464.793 425.236C466.391 422.081 455.342 401.793 443.648 359.546C430.16 310.906 453.702 324.886 465.704 337.743Z" fill="#FAC4BB"/>
<path d="M356.969 387.477C333.357 384.196 326.781 386.972 308.329 373.61C296.214 364.846 285.418 368.814 292.316 382.752C303.632 405.536 333.217 416.178 344.532 416.922L356.969 387.477Z" fill="#FAC4BB"/>
<path d="M419.714 410.219C419.714 410.219 393.172 395.483 368.354 389.482C351.178 385.345 312.83 380.48 276.136 418.324C267.429 427.311 261.385 446.268 280.931 436.776C294.812 430.017 301.57 421.549 310.376 419.095C310.376 419.095 305.567 444.137 314.891 452.494C323.054 459.812 331.727 466.54 340.844 472.628C342.338 471.212 343.743 469.704 345.051 468.113C345.051 468.113 354.515 475.124 372.308 473.413L419.714 410.219Z" fill="#FAC4BB"/>
<path d="M351.332 388.15C343.13 392.426 325.883 401.793 314.442 414.356C301.739 428.307 281.015 458.621 291.405 467.903C299.033 474.703 307.964 463.823 307.964 463.823C307.964 463.823 302.047 478.153 310.278 482.794C317.779 487 324.173 478.195 324.173 478.195C324.173 478.195 322.084 487.505 330.09 490.183C339.722 493.408 342.541 473.357 355.118 468.184C357.936 467.034 351.332 388.15 351.332 388.15Z" fill="#FAC4BB"/>
<path d="M331.422 425.32C324.411 430.62 311.413 446.745 307.838 463.444C307.754 463.823 307.992 464.089 308.146 463.767C314.366 450.094 322.229 437.23 331.562 425.46C331.618 425.362 331.506 425.264 331.422 425.32Z" fill="#2A3042"/>
<path d="M345.149 438.556C339.54 443.758 326.921 460.99 323.864 478.026C323.794 478.405 324.061 478.657 324.201 478.321C329.695 464.353 336.751 451.051 345.233 438.668C345.345 438.584 345.219 438.5 345.149 438.556Z" fill="#2A3042"/>
<path d="M310.362 418.941C302.664 421.212 297.659 424.984 291.153 429.499C287.967 431.775 284.658 433.872 281.24 435.78C278.099 437.477 273.486 439.987 270.135 437.379C268.284 435.906 268.312 433.172 268.733 431.097C269.178 428.701 270.135 426.43 271.537 424.437C271.607 424.339 271.439 424.213 271.369 424.311C270.042 426.047 268.97 427.964 268.186 430.003C267.349 431.891 267.104 433.989 267.485 436.019C268.62 440.225 273.626 440.814 277.159 439.65C279.276 438.879 281.31 437.897 283.231 436.72C285.095 435.64 286.904 434.49 288.685 433.284C292.344 430.803 295.864 428.125 299.495 425.615C303.021 423.242 306.698 421.102 310.502 419.207C310.537 419.188 310.564 419.157 310.576 419.118C310.588 419.08 310.584 419.039 310.565 419.004C310.547 418.968 310.515 418.942 310.477 418.93C310.438 418.918 310.397 418.922 310.362 418.941Z" fill="#2A3042"/>
<path d="M294.237 446.03C296.228 441.641 307.011 423.357 310.516 419.123C310.529 419.101 310.535 419.076 310.532 419.051C310.529 419.026 310.517 419.003 310.5 418.985C310.482 418.967 310.459 418.956 310.434 418.953C310.409 418.95 310.383 418.955 310.362 418.969C304.361 424.661 294.714 439.762 292.471 444.614C290.227 449.465 287.689 455.508 287.689 460.836C287.689 468.885 293.017 470.399 294.994 470.791C297.335 471.217 299.75 470.826 301.837 469.684C304.28 468.179 306.393 466.195 308.048 463.851C308.132 463.739 307.978 463.584 307.88 463.697C305.076 466.865 300.463 469.992 296.102 469.417C295.136 469.325 294.198 469.04 293.343 468.58C292.489 468.12 291.734 467.494 291.125 466.739C289.933 464.804 289.475 462.505 289.835 460.261C290.48 455.301 291.969 450.488 294.237 446.03Z" fill="#2A3042"/>
<path d="M323.864 478.026C322.743 478.98 320.443 482.317 316.784 483.032C315.484 483.386 314.118 483.417 312.804 483.124C311.489 482.831 310.266 482.222 309.24 481.349C307.355 479.382 306.313 476.755 306.338 474.03C306.641 470.618 307.204 467.234 308.02 463.907C308.02 463.753 307.866 463.683 307.824 463.837C306.479 467.323 305.662 470.99 305.398 474.717C305.347 476.193 305.594 477.663 306.124 479.041C306.654 480.419 307.457 481.676 308.483 482.738C309.588 483.776 310.958 484.49 312.442 484.799C313.927 485.108 315.468 485.002 316.896 484.49C318.298 483.957 322.855 481.055 324.159 478.195C324.201 478.125 323.92 477.984 323.864 478.026Z" fill="#2A3042"/>
<path d="M354.361 466.739C353.122 467.569 351.98 468.533 350.954 469.614C349.818 470.707 348.724 471.843 347.672 472.993C345.544 475.329 343.664 477.88 342.064 480.606C340.438 483.34 338.937 486.383 336.287 488.276C335.03 489.235 333.502 489.773 331.921 489.813C330.34 489.854 328.786 489.394 327.482 488.5C326.107 487.502 325.117 486.061 324.678 484.42C324.154 482.638 323.982 480.771 324.173 478.924C324.173 478.894 324.161 478.865 324.14 478.844C324.119 478.823 324.09 478.812 324.061 478.812C324.031 478.812 324.002 478.823 323.981 478.844C323.96 478.865 323.948 478.894 323.948 478.924C323.657 480.566 323.526 482.233 323.556 483.901C323.7 485.417 324.242 486.868 325.126 488.108C326.081 489.326 327.353 490.257 328.803 490.799C330.252 491.34 331.823 491.472 333.343 491.178C336.708 490.561 339.162 488.038 340.998 485.303C343.017 482.261 344.7 479.022 346.873 476.063C348.009 474.507 349.131 472.937 350.379 471.464C351.627 469.992 353.183 468.562 354.445 466.964C354.641 466.837 354.529 466.655 354.361 466.739Z" fill="#2A3042"/>
<path d="M363.769 473.61C359.375 473.126 355.036 472.225 350.813 470.917C350.673 470.917 350.491 471.254 350.617 471.324C352.659 472.26 354.799 472.965 356.997 473.427C359.211 473.904 361.484 474.045 363.741 473.848C363.853 473.834 363.909 473.624 363.769 473.61Z" fill="#2A3042"/>
<path d="M508.763 446.492C495.208 437.317 480.353 430.228 464.694 425.46C460.264 424.058 455.791 422.88 451.318 421.661C451.297 421.669 451.278 421.683 451.265 421.702C451.252 421.721 451.245 421.743 451.245 421.766C451.245 421.789 451.252 421.811 451.265 421.83C451.278 421.849 451.297 421.863 451.318 421.871C459.112 424.304 466.761 427.179 474.229 430.48C481.707 433.696 489.091 437.042 496.383 440.519C500.589 442.496 504.571 444.656 508.651 446.759C508.669 446.776 508.691 446.788 508.715 446.795C508.739 446.802 508.764 446.803 508.789 446.797C508.813 446.792 508.836 446.781 508.855 446.765C508.874 446.75 508.889 446.729 508.899 446.706C508.909 446.683 508.913 446.658 508.911 446.634C508.908 446.609 508.9 446.585 508.887 446.564C508.874 446.543 508.856 446.525 508.834 446.513C508.812 446.5 508.788 446.493 508.763 446.492Z" fill="#2A3042"/>
<path d="M521.383 406.392L455.412 404.204C455.412 404.204 443.13 371.647 438.46 342.679C433.791 313.711 457.515 322.558 482.277 353.573C507.039 384.589 521.383 406.392 521.383 406.392Z" fill="#FF6330"/>
<path d="M462.745 380.017C462.44 380.27 462.08 380.448 461.694 380.536C461.345 380.611 460.982 380.594 460.641 380.489C460.3 380.383 459.991 380.192 459.745 379.933C459.458 379.645 459.11 379.425 458.727 379.29C458.343 379.154 457.934 379.107 457.53 379.152C457.126 379.196 456.737 379.331 456.392 379.546C456.048 379.762 455.756 380.052 455.539 380.396C455.286 380.774 455.006 381.125 454.781 381.532C455.188 381.307 455.539 381.027 455.931 380.774C456.23 380.511 456.585 380.319 456.969 380.214C457.313 380.127 457.674 380.13 458.017 380.22C458.36 380.311 458.675 380.487 458.932 380.732C459.315 381.115 459.802 381.378 460.332 381.49C460.862 381.602 461.413 381.558 461.918 381.363C462.392 381.16 462.796 380.824 463.082 380.396C463.334 380.017 463.615 379.667 463.839 379.26C463.475 379.484 463.124 379.765 462.745 380.017ZM483.525 367.889C483.427 367.44 483.371 366.991 483.245 366.487C483.118 366.935 483.062 367.384 482.978 367.889C482.952 368.283 482.837 368.667 482.642 369.011C482.462 369.317 482.206 369.572 481.899 369.751C481.592 369.93 481.244 370.028 480.889 370.034C480.344 370.035 479.811 370.195 479.356 370.493C478.9 370.792 478.541 371.217 478.323 371.717C478.133 372.193 478.084 372.714 478.183 373.217C478.267 373.666 478.323 374.114 478.449 374.619C478.576 374.17 478.632 373.722 478.73 373.217C478.759 372.823 478.884 372.443 479.094 372.109C479.29 371.809 479.558 371.563 479.875 371.394C480.191 371.225 480.545 371.138 480.903 371.142C481.302 371.138 481.696 371.045 482.055 370.871C482.415 370.697 482.731 370.445 482.982 370.134C483.232 369.823 483.411 369.461 483.505 369.072C483.599 368.684 483.606 368.28 483.525 367.889ZM460.348 331.616C460.333 331.774 460.333 331.934 460.348 332.092C460.446 332.527 460.488 332.976 460.614 333.424C460.74 332.976 460.796 332.527 460.895 332.092C460.768 331.896 460.572 331.756 460.376 331.616H460.348ZM507.361 386.481C506.868 386.47 506.399 386.263 506.057 385.906C505.671 385.523 505.181 385.261 504.649 385.152C504.116 385.042 503.563 385.09 503.057 385.289C502.584 385.487 502.18 385.819 501.893 386.243C501.641 386.635 501.36 386.986 501.136 387.392C501.542 387.168 501.893 386.888 502.286 386.635C502.579 386.373 502.937 386.194 503.323 386.117C503.673 386.039 504.038 386.053 504.381 386.156C504.725 386.259 505.036 386.448 505.286 386.705C505.641 387.041 506.077 387.279 506.552 387.395C507.026 387.51 507.523 387.5 507.992 387.364L507.361 386.481ZM461.708 353.601C461.311 353.565 460.928 353.441 460.586 353.237C460.287 353.04 460.043 352.771 459.877 352.455C459.71 352.139 459.626 351.785 459.633 351.428C459.617 350.881 459.441 350.35 459.127 349.902C458.813 349.453 458.375 349.106 457.866 348.904C457.384 348.735 456.865 348.701 456.366 348.806C455.917 348.904 455.468 348.96 454.964 349.086C455.412 349.198 455.861 349.255 456.366 349.353C456.765 349.38 457.152 349.495 457.502 349.689C457.806 349.871 458.06 350.127 458.239 350.434C458.418 350.74 458.516 351.087 458.525 351.442C458.526 351.987 458.685 352.52 458.984 352.975C459.283 353.431 459.708 353.79 460.208 354.008C460.684 354.198 461.205 354.247 461.708 354.148C462.143 354.05 462.591 354.008 463.04 353.882C462.633 353.755 462.185 353.699 461.75 353.601H461.708ZM492.05 399.745C491.655 399.712 491.275 399.582 490.942 399.367C490.639 399.174 490.391 398.906 490.221 398.589C490.052 398.272 489.967 397.917 489.975 397.558C489.974 397.158 489.883 396.764 489.709 396.403C489.536 396.043 489.284 395.726 488.972 395.476C488.66 395.226 488.296 395.049 487.907 394.958C487.517 394.867 487.112 394.864 486.722 394.95C486.273 395.048 485.825 395.09 485.32 395.216C485.768 395.343 486.217 395.399 486.722 395.497C487.118 395.517 487.502 395.632 487.844 395.833C488.152 396.011 488.408 396.267 488.588 396.574C488.767 396.881 488.864 397.23 488.867 397.586C488.871 398.129 489.032 398.658 489.33 399.111C489.629 399.564 490.052 399.921 490.55 400.138C491.023 400.339 491.546 400.393 492.05 400.292C492.499 400.194 492.947 400.138 493.452 400.012C492.989 399.885 492.541 399.829 492.092 399.745H492.05Z" fill="white"/>
<path d="M458.118 403.98C457.754 403.98 455.44 403.573 455.426 403.573C455.258 402.718 451.5 389.103 450.505 386.145C448.5 380.101 446.13 374.17 443.845 368.239C443.824 368.209 443.795 368.186 443.76 368.174C443.726 368.161 443.688 368.161 443.653 368.172C443.618 368.183 443.588 368.205 443.567 368.235C443.546 368.265 443.535 368.301 443.536 368.338C445.022 373.441 446.425 378.573 447.953 383.677C447.49 382.948 447.042 382.275 446.551 381.49C445.667 379.975 444.882 378.405 444.055 376.863C444.037 376.835 444.009 376.815 443.977 376.806C443.946 376.797 443.912 376.799 443.882 376.813C443.852 376.826 443.827 376.85 443.813 376.879C443.798 376.909 443.795 376.943 443.803 376.975C444.509 379.113 445.484 381.154 446.705 383.046C447.231 383.857 447.807 384.634 448.43 385.373L448.808 386.649C449.748 389.622 454.571 404.358 454.823 404.372H458.006C458.287 404.428 458.287 403.98 458.118 403.98Z" fill="#2A3042"/>
<path d="M510.684 393.618C496.467 392.553 482.137 392.483 467.863 392.707C463.816 392.763 459.773 392.917 455.735 393.17C455.717 393.177 455.701 393.189 455.69 393.206C455.679 393.222 455.673 393.241 455.673 393.261C455.673 393.28 455.679 393.299 455.69 393.316C455.701 393.332 455.717 393.345 455.735 393.352C462.858 393.73 469.98 393.815 477.117 393.955C484.254 394.095 491.419 394.151 498.57 394.081C502.608 394.081 506.646 394.011 510.684 393.885C510.712 393.875 510.737 393.858 510.754 393.834C510.771 393.81 510.781 393.781 510.781 393.751C510.781 393.722 510.771 393.693 510.754 393.669C510.737 393.645 510.712 393.627 510.684 393.618Z" fill="#2A3042"/>
<path d="M282.291 520.329H292.358V513.753H282.291V520.329Z" fill="#455A64"/>
<path d="M269.237 519.894H279.305V513.318H269.237V519.894Z" fill="#455A64"/>
<path d="M256.169 519.459H266.237V512.883H256.169V519.459Z" fill="#455A64"/>
<path d="M243.116 519.025H253.183V512.449H243.116V519.025Z" fill="#455A64"/>
<path d="M230.048 518.59H240.115V512.014H230.048V518.59Z" fill="#455A64"/>
<path d="M216.994 518.156H227.061V511.58H216.994V518.156Z" fill="#455A64"/>
<path d="M203.926 517.721H213.993V511.145H203.926V517.721Z" fill="#455A64"/>
<path d="M190.872 517.286H200.939V510.71H190.872V517.286Z" fill="#455A64"/>
<path d="M177.804 516.852H187.872V510.276H177.804V516.852Z" fill="#455A64"/>
<path d="M175.337 524.115H294.826V516.123L175.337 512.786V524.115Z" fill="#37474F"/>
<path d="M58.7212 492.567H255.973L224.607 345.708H27.3416L58.7212 492.567Z" fill="#455A64"/>
<path d="M51.4162 492.567H248.682L217.302 345.708H20.0505L51.4162 492.567Z" fill="#37474F"/>
<path d="M117.316 410.626C117.918 413.971 119.651 417.007 122.223 419.227C124.796 421.448 128.053 422.718 131.45 422.825C132.983 422.873 134.508 422.574 135.909 421.948C137.31 421.323 138.551 420.388 139.539 419.214C140.527 418.04 141.236 416.657 141.613 415.17C141.989 413.682 142.024 412.129 141.713 410.626C141.104 407.285 139.37 404.253 136.798 402.034C134.227 399.815 130.974 398.542 127.58 398.427C126.046 398.379 124.522 398.678 123.121 399.304C121.719 399.929 120.478 400.864 119.49 402.038C118.503 403.212 117.794 404.595 117.417 406.082C117.041 407.57 117.006 409.123 117.316 410.626Z" fill="#2A3042"/>
<path d="M107.207 530.915H204.22V523.385L107.207 520.245V530.915Z" fill="#455A64"/>
<path d="M80.833 530.901H132.922L164.288 448.624H112.199L80.833 530.901Z" fill="#455A64"/>
<path d="M72.252 530.901H124.341L155.721 448.624H103.632L72.252 530.901Z" fill="#2A3042"/>
<path d="M298.514 532.92H398.542C407.081 532.92 394.728 508.621 363.573 499.269C332.417 489.917 288.629 523.806 298.514 532.92Z" fill="#37474F"/>
<path d="M337.773 532.92C337.141 530.27 336.331 527.665 335.348 525.124C334.376 522.615 333.189 520.194 331.8 517.889C330.437 515.577 328.809 513.431 326.949 511.495L325.547 510.093L323.99 508.789C323.009 507.836 321.789 507.219 320.709 506.35C323.284 507.393 325.657 508.878 327.72 510.738C329.807 512.604 331.595 514.779 333.02 517.188C334.444 519.583 335.578 522.139 336.399 524.802C337.208 527.436 337.67 530.166 337.773 532.92Z" fill="#2A3042"/>
<path d="M325.911 509.799C324.509 510.528 323.177 511.201 321.831 512C320.485 512.799 319.125 513.5 317.807 514.286C315.171 515.87 312.549 517.468 310.067 519.263C307.547 520.991 305.199 522.959 303.057 525.138C301.994 526.224 301.054 527.423 300.252 528.714C299.414 530.001 298.807 531.424 298.458 532.92C298.547 531.346 298.952 529.805 299.65 528.391C300.362 526.978 301.227 525.647 302.23 524.423C304.282 522.024 306.639 519.903 309.24 518.113C314.364 514.556 319.974 511.756 325.897 509.799H325.911Z" fill="#2A3042"/>
<path d="M486.315 474.718L480.37 549.367H439.316L433.371 474.718H486.315Z" fill="#FF6330"/>
<path opacity="0.1" d="M486.315 474.718L480.37 549.367H439.316L433.371 474.718H486.315Z" fill="black"/>
<path d="M489.849 467.987H429.487V478.868H489.849V467.987Z" fill="#455A64"/>
<path d="M485.712 467.987H433.623L436.666 455.761H482.67L485.712 467.987Z" fill="#37474F"/>
<path d="M474.103 512.701C474.103 522.39 467.723 530.242 459.843 530.242C451.963 530.242 445.583 522.39 445.583 512.701C445.583 503.012 451.977 495.146 459.843 495.146C467.709 495.146 474.103 503.012 474.103 512.701Z" fill="white"/>
<defs>
<clipPath id="clip0_446_8544">
<rect width="54" height="54" fill="white" transform="translate(64 48)"/>
</clipPath>
</defs>
</svg>
