<svg width="250" height="90" viewBox="0 0 240 84" fill="none" xmlns="http://www.w3.org/2000/svg">
<rect x="24" y="24" width="36" height="36" rx="6" fill="#FF6330"/>
<path d="M33.0498 49H30.2109L35.4668 35.8164H38.3232L43.5703 49H40.7314L39.6504 46.1699H34.1309L33.0498 49ZM35.0186 43.7969H38.7715L36.8906 38.9102L35.0186 43.7969ZM49.6699 49H46.9629V38.1807H43.0781V35.8164H53.5635V38.1807H49.6699V49Z" fill="white"/>
<path d="M78.1083 45.872H73.6603L72.9243 48H70.5723L74.5883 36.816H77.1963L81.2123 48H78.8443L78.1083 45.872ZM77.5003 44.08L75.8843 39.408L74.2682 44.08H77.5003ZM84.9534 40.416C85.2414 40.0107 85.636 39.6747 86.1374 39.408C86.6494 39.1307 87.2307 38.992 87.8814 38.992C88.6387 38.992 89.3214 39.1787 89.9294 39.552C90.548 39.9253 91.0334 40.4587 91.3854 41.152C91.748 41.8347 91.9294 42.6293 91.9294 43.536C91.9294 44.4427 91.748 45.248 91.3854 45.952C91.0334 46.6453 90.548 47.184 89.9294 47.568C89.3214 47.952 88.6387 48.144 87.8814 48.144C87.2307 48.144 86.6547 48.0107 86.1534 47.744C85.6627 47.4773 85.2627 47.1413 84.9534 46.736V52.224H82.7134V39.136H84.9534V40.416ZM89.6414 43.536C89.6414 43.0027 89.5294 42.544 89.3054 42.16C89.092 41.7653 88.804 41.4667 88.4414 41.264C88.0894 41.0613 87.7054 40.96 87.2894 40.96C86.884 40.96 86.5 41.0667 86.1374 41.28C85.7854 41.4827 85.4974 41.7813 85.2734 42.176C85.06 42.5707 84.9534 43.0347 84.9534 43.568C84.9534 44.1013 85.06 44.5653 85.2734 44.96C85.4974 45.3547 85.7854 45.6587 86.1374 45.872C86.5 46.0747 86.884 46.176 87.2894 46.176C87.7054 46.176 88.0894 46.0693 88.4414 45.856C88.804 45.6427 89.092 45.3387 89.3054 44.944C89.5294 44.5493 89.6414 44.08 89.6414 43.536ZM94.6931 38.08C94.2985 38.08 93.9678 37.9573 93.7011 37.712C93.4451 37.456 93.3171 37.1413 93.3171 36.768C93.3171 36.3947 93.4451 36.0853 93.7011 35.84C93.9678 35.584 94.2985 35.456 94.6931 35.456C95.0878 35.456 95.4131 35.584 95.6691 35.84C95.9358 36.0853 96.0691 36.3947 96.0691 36.768C96.0691 37.1413 95.9358 37.456 95.6691 37.712C95.4131 37.9573 95.0878 38.08 94.6931 38.08ZM95.7971 39.136V48H93.5571V39.136H95.7971ZM101.402 48.144C100.677 48.144 100.026 48.016 99.4503 47.76C98.8743 47.4933 98.4156 47.136 98.0743 46.688C97.7436 46.24 97.5623 45.744 97.5303 45.2H99.7863C99.8289 45.5413 99.9943 45.824 100.282 46.048C100.581 46.272 100.949 46.384 101.386 46.384C101.813 46.384 102.144 46.2987 102.378 46.128C102.624 45.9573 102.746 45.7387 102.746 45.472C102.746 45.184 102.597 44.9707 102.298 44.832C102.01 44.6827 101.546 44.5227 100.906 44.352C100.245 44.192 99.7009 44.0267 99.2743 43.856C98.8583 43.6853 98.4956 43.424 98.1863 43.072C97.8876 42.72 97.7383 42.2453 97.7383 41.648C97.7383 41.1573 97.8769 40.7093 98.1543 40.304C98.4423 39.8987 98.8476 39.5787 99.3703 39.344C99.9036 39.1093 100.528 38.992 101.242 38.992C102.298 38.992 103.141 39.2587 103.77 39.792C104.4 40.3147 104.746 41.024 104.81 41.92H102.666C102.634 41.568 102.485 41.2907 102.218 41.088C101.962 40.8747 101.616 40.768 101.178 40.768C100.773 40.768 100.458 40.8427 100.234 40.992C100.021 41.1413 99.9143 41.3493 99.9143 41.616C99.9143 41.9147 100.064 42.144 100.362 42.304C100.661 42.4533 101.125 42.608 101.754 42.768C102.394 42.928 102.922 43.0933 103.338 43.264C103.754 43.4347 104.112 43.7013 104.41 44.064C104.72 44.416 104.88 44.8853 104.89 45.472C104.89 45.984 104.746 46.4427 104.458 46.848C104.181 47.2533 103.776 47.5733 103.242 47.808C102.72 48.032 102.106 48.144 101.402 48.144ZM114.329 36.832V38.64H111.353V48H109.113V38.64H106.137V36.832H114.329ZM118.203 38.64V41.44H121.963V43.216H118.203V46.176H122.443V48H115.963V36.816H122.443V38.64H118.203ZM128.383 36.832C129.556 36.832 130.586 37.0613 131.471 37.52C132.367 37.9787 133.055 38.6347 133.535 39.488C134.026 40.3307 134.271 41.312 134.271 42.432C134.271 43.552 134.026 44.5333 133.535 45.376C133.055 46.208 132.367 46.8533 131.471 47.312C130.586 47.7707 129.556 48 128.383 48H124.479V36.832H128.383ZM128.303 46.096C129.476 46.096 130.383 45.776 131.023 45.136C131.663 44.496 131.983 43.5947 131.983 42.432C131.983 41.2693 131.663 40.3627 131.023 39.712C130.383 39.0507 129.476 38.72 128.303 38.72H126.719V46.096H128.303Z" fill="white"/>
</svg>
