<svg width="148" height="47" viewBox="0 0 148 47" fill="none" xmlns="http://www.w3.org/2000/svg">
<rect width="50" height="47" rx="6" fill="#FF6330"/>
<path d="M13.7275 32H10.2578L16.6816 15.8867H20.1729L26.5859 32H23.1162L21.7949 28.541H15.0488L13.7275 32ZM16.1338 25.6406H20.7207L18.4219 19.668L16.1338 25.6406ZM34.041 32H30.7324V18.7764H25.9844V15.8867H38.7998V18.7764H34.041V32Z" fill="white"/>
<path d="M71.1903 27.876H64.7883L63.6883 31H61.0703L66.5483 15.688H69.4523L74.9303 31H72.2903L71.1903 27.876ZM70.4863 25.83L68.0003 18.724L65.4923 25.83H70.4863ZM79.8201 20.66C80.2454 20.1027 80.8248 19.6333 81.5581 19.252C82.2914 18.8707 83.1201 18.68 84.0441 18.68C85.1001 18.68 86.0608 18.944 86.9261 19.472C87.8061 19.9853 88.4954 20.7113 88.9941 21.65C89.4928 22.5887 89.7421 23.6667 89.7421 24.884C89.7421 26.1013 89.4928 27.194 88.9941 28.162C88.4954 29.1153 87.8061 29.8633 86.9261 30.406C86.0608 30.934 85.1001 31.198 84.0441 31.198C83.1201 31.198 82.2988 31.0147 81.5801 30.648C80.8614 30.2667 80.2748 29.7973 79.8201 29.24V36.764H77.3121V18.878H79.8201V20.66ZM87.1901 24.884C87.1901 24.048 87.0141 23.3293 86.6621 22.728C86.3248 22.112 85.8701 21.65 85.2981 21.342C84.7408 21.0193 84.1394 20.858 83.4941 20.858C82.8634 20.858 82.2621 21.0193 81.6901 21.342C81.1328 21.6647 80.6781 22.134 80.3261 22.75C79.9888 23.366 79.8201 24.092 79.8201 24.928C79.8201 25.764 79.9888 26.4973 80.3261 27.128C80.6781 27.744 81.1328 28.2133 81.6901 28.536C82.2621 28.8587 82.8634 29.02 83.4941 29.02C84.1394 29.02 84.7408 28.8587 85.2981 28.536C85.8701 28.1987 86.3248 27.7147 86.6621 27.084C87.0141 26.4533 87.1901 25.72 87.1901 24.884ZM93.4983 17.272C93.0436 17.272 92.6623 17.118 92.3543 16.81C92.0463 16.502 91.8923 16.1207 91.8923 15.666C91.8923 15.2113 92.0463 14.83 92.3543 14.522C92.6623 14.214 93.0436 14.06 93.4983 14.06C93.9383 14.06 94.3123 14.214 94.6203 14.522C94.9283 14.83 95.0823 15.2113 95.0823 15.666C95.0823 16.1207 94.9283 16.502 94.6203 16.81C94.3123 17.118 93.9383 17.272 93.4983 17.272ZM94.7303 18.878V31H92.2223V18.878H94.7303ZM102.423 31.198C101.47 31.198 100.612 31.0293 99.849 30.692C99.101 30.34 98.507 29.8707 98.067 29.284C97.627 28.6827 97.3924 28.0153 97.363 27.282H99.959C100.003 27.7953 100.245 28.228 100.685 28.58C101.14 28.9173 101.704 29.086 102.379 29.086C103.083 29.086 103.626 28.954 104.007 28.69C104.403 28.4113 104.601 28.0593 104.601 27.634C104.601 27.1793 104.381 26.842 103.941 26.622C103.516 26.402 102.834 26.16 101.895 25.896C100.986 25.6467 100.245 25.4047 99.673 25.17C99.101 24.9353 98.6024 24.576 98.177 24.092C97.7664 23.608 97.561 22.97 97.561 22.178C97.561 21.5327 97.7517 20.946 98.133 20.418C98.5144 19.8753 99.057 19.45 99.761 19.142C100.48 18.834 101.301 18.68 102.225 18.68C103.604 18.68 104.711 19.032 105.547 19.736C106.398 20.4253 106.852 21.3713 106.911 22.574H104.403C104.359 22.0313 104.139 21.5987 103.743 21.276C103.347 20.9533 102.812 20.792 102.137 20.792C101.477 20.792 100.971 20.9167 100.619 21.166C100.267 21.4153 100.091 21.7453 100.091 22.156C100.091 22.4787 100.208 22.75 100.443 22.97C100.678 23.19 100.964 23.366 101.301 23.498C101.638 23.6153 102.137 23.7693 102.797 23.96C103.677 24.1947 104.396 24.4367 104.953 24.686C105.525 24.9207 106.016 25.2727 106.427 25.742C106.838 26.2113 107.05 26.8347 107.065 27.612C107.065 28.3013 106.874 28.9173 106.493 29.46C106.112 30.0027 105.569 30.428 104.865 30.736C104.176 31.044 103.362 31.198 102.423 31.198Z" fill="black"/>
<path d="M119.653 15.71V17.756H115.583V31H113.075V17.756H108.983V15.71H119.653ZM124.701 17.734V22.222H129.981V24.268H124.701V28.954H130.641V31H122.193V15.688H130.641V17.734H124.701ZM138.724 15.71C140.352 15.71 141.775 16.0253 142.992 16.656C144.224 17.272 145.17 18.1667 145.83 19.34C146.505 20.4987 146.842 21.8553 146.842 23.41C146.842 24.9647 146.505 26.314 145.83 27.458C145.17 28.602 144.224 29.482 142.992 30.098C141.775 30.6993 140.352 31 138.724 31H133.73V15.71H138.724ZM138.724 28.954C140.513 28.954 141.885 28.47 142.838 27.502C143.791 26.534 144.268 25.17 144.268 23.41C144.268 21.6353 143.791 20.2493 142.838 19.252C141.885 18.2547 140.513 17.756 138.724 17.756H136.238V28.954H138.724Z" fill="#FF6330"/>
</svg>
