<svg width="60" height="60" viewBox="0 0 50 60" fill="none" xmlns="http://www.w3.org/2000/svg">
<path fill-rule="evenodd" clip-rule="evenodd" d="M31.5883 0.154279C30.9943 0.341491 29.9813 1.39046 29.7992 2.00691C29.7182 2.28089 29.652 3.02345 29.652 3.65709V4.80928L29.0809 4.89496C28.4398 4.99104 27.5675 5.39778 27.0271 5.85244C26.8291 6.01908 26.4819 6.49866 26.2557 6.9181C25.8792 7.61636 25.8447 7.76727 25.8472 8.70926C25.8495 9.58336 25.8981 9.83072 26.171 10.3559C26.3477 10.696 26.6335 11.142 26.8063 11.3473C27.1931 11.807 28.3909 12.4201 29.1139 12.5285L29.652 12.6092V15.0159V17.4224H33.5139H37.3756L37.4166 16.0997C37.4608 14.6704 37.566 14.401 38.2907 13.8599C38.7593 13.5101 39.9073 13.5101 40.3758 13.8599C41.1006 14.401 41.2058 14.6704 41.25 16.0997L41.291 17.4224H43.8983C45.5918 17.4224 46.6803 17.3709 47.0038 17.2753C47.6685 17.0788 48.671 16.0763 48.8674 15.4116C49.0767 14.7032 49.0767 2.71534 48.8674 2.00691C48.671 1.34217 47.6685 0.339676 47.0038 0.143267C46.3343 -0.0544734 32.2188 -0.044429 31.5883 0.154279ZM31.8854 2.22946C31.5926 2.52208 31.5883 2.55741 31.5883 4.63901V6.75159L30.2656 6.79261C29.1586 6.82686 28.8883 6.87417 28.6091 7.08305C27.9743 7.55755 27.7763 7.9442 27.7763 8.70926C27.7763 9.47432 27.9743 9.86097 28.6091 10.3355C28.8883 10.5443 29.1586 10.5917 30.2656 10.6259L31.5883 10.6669V13.0765V15.4862H33.5107H35.4333L35.5183 14.9113C35.624 14.1952 36.2313 13.0309 36.7083 12.6293C36.9064 12.4627 37.3466 12.1818 37.6866 12.0051C38.2137 11.7313 38.4561 11.684 39.3333 11.684C40.2105 11.684 40.4529 11.7313 40.98 12.0051C41.32 12.1818 41.7661 12.4677 41.9713 12.6405C42.4311 13.0272 43.0441 14.225 43.1526 14.948L43.2333 15.4862H44.8588C46.4233 15.4862 46.4954 15.475 46.7812 15.1891L47.0783 14.8921V8.70926V2.52643L46.7812 2.22946L46.4842 1.93237H39.3333H32.1823L31.8854 2.22946ZM17.0773 5.94029C10.9846 6.64666 5.35407 10.6206 2.60907 16.1517C1.84376 17.6938 1.21654 19.5379 0.901049 21.1739C0.567771 22.9019 0.594032 26.3648 0.953207 28.0443C1.6793 31.4402 3.02464 34.2218 5.13382 36.6891C6.01083 37.7147 7.10469 38.7017 9.59992 40.718L11.2472 42.0492L11.2524 43.3959L11.2576 44.7426L10.8904 44.8947C10.068 45.2354 9.32134 46.4771 9.32134 47.5042C9.32134 48.4635 10.088 49.6179 10.9973 50.028C11.4378 50.2266 11.4722 50.2741 11.3701 50.5427C10.9536 51.6382 11.6614 53.2516 12.8172 53.8413C13.215 54.0443 13.2775 54.1425 13.4097 54.7751C14.0682 57.9214 17.1952 60.2327 20.4538 59.9813C22.6154 59.8147 24.4675 58.7018 25.6637 56.8507C26.1209 56.1435 26.6266 54.8153 26.6266 54.322C26.6266 54.1803 26.8033 54.005 27.0977 53.8549C28.2796 53.252 28.9924 51.6498 28.5713 50.5427C28.4693 50.2741 28.5037 50.2266 28.9442 50.028C29.8535 49.6179 30.6201 48.4635 30.6201 47.5042C30.6201 46.4771 29.8735 45.2354 29.0511 44.8947L28.6839 44.7426L28.6913 43.3959L28.6987 42.0492L30.332 40.7294C34.5964 37.2835 35.9235 35.771 37.456 32.6099C38.6217 30.2052 39.1895 27.8678 39.3005 25.0162L39.3701 23.2312H36.461H33.552L33.4713 22.693C33.3629 21.9701 32.7498 20.7723 32.29 20.3855C32.0848 20.2127 31.6387 19.9268 31.2987 19.7502C30.7717 19.4763 30.5293 19.429 29.652 19.429C28.7748 19.429 28.5324 19.4763 28.0054 19.7502C27.6653 19.9268 27.2252 20.2077 27.0271 20.3744C26.55 20.7759 25.9428 21.9402 25.837 22.6563L25.752 23.2312H23.8295H21.907V20.8215V18.412L20.5843 18.3709C19.155 18.3268 18.8856 18.2216 18.3445 17.4968C17.9947 17.0283 17.9947 15.8803 18.3445 15.4117C18.8856 14.687 19.155 14.5818 20.5843 14.5376L21.907 14.4966V10.1508V5.80488L19.9405 5.82061C18.859 5.8292 17.5705 5.88305 17.0773 5.94029ZM17.1432 7.87849C16.122 8.00955 14.6914 8.36921 13.5269 8.78744C7.76048 10.8587 3.41431 16.3215 2.68543 22.4143L2.58777 23.2312H5.4567H8.32574L8.41142 22.6601C8.50751 22.019 8.91424 21.1467 9.3689 20.6062C9.53554 20.4082 10.0151 20.061 10.4346 19.8349C11.1328 19.4584 11.2837 19.4239 12.2257 19.4263C13.0998 19.4286 13.3472 19.4773 13.8724 19.7502C14.2124 19.9268 14.6585 20.2127 14.8637 20.3855C15.3235 20.7723 15.9366 21.9701 16.045 22.693L16.1257 23.2312H18.0483H19.9707V21.7928V20.3543L19.4326 20.2735C18.7096 20.1651 17.5118 19.552 17.1251 19.0923C16.9522 18.8871 16.6664 18.441 16.4897 18.1009C16.2159 17.5739 16.1685 17.3315 16.1685 16.4543C16.1685 15.577 16.2159 15.3346 16.4897 14.8076C16.6664 14.4676 16.9473 14.0274 17.1139 13.8293C17.5155 13.3523 18.6797 12.745 19.3959 12.6393L19.9707 12.5543V10.1477V7.74113L18.9724 7.75638C18.4233 7.76485 17.6002 7.81979 17.1432 7.87849ZM11.4391 21.459C10.5598 21.8661 10.2895 22.4697 10.2895 24.0256V25.1674H6.4051H2.52073L2.59999 25.9238C3.01617 29.8908 4.54895 33.2875 7.13942 35.9835C7.70723 36.5743 9.30173 37.9827 10.6828 39.1132L13.1939 41.1688V42.8493V44.53H16.5823H19.9707V40.6713V36.8124L19.4326 36.7317C18.7096 36.6233 17.5118 36.0102 17.1251 35.5505C16.9522 35.3452 16.6664 34.8992 16.4897 34.5591C16.2168 34.0339 16.1682 33.7865 16.1659 32.9125C16.1635 31.9705 16.1979 31.8196 16.5744 31.1213C16.8006 30.7019 17.1478 30.2223 17.3458 30.0556C17.8862 29.601 18.7585 29.1942 19.3997 29.0982L19.9707 29.0125V27.0899V25.1674H17.077H14.1834L14.1424 23.8447C14.0984 22.4228 13.9916 22.1449 13.2862 21.6183C12.8851 21.3189 11.9214 21.2357 11.4391 21.459ZM28.8654 21.459C27.9861 21.8661 27.7158 22.4697 27.7158 24.0256V25.1674H24.8114H21.907V28.0612V30.9548L20.5843 30.9958C19.155 31.04 18.8856 31.1451 18.3445 31.8699C17.9947 32.3385 17.9947 33.4864 18.3445 33.955C18.8856 34.6798 19.155 34.7849 20.5843 34.8291L21.907 34.8701V39.7V44.53H24.3273H26.7476V42.8493V41.1688L29.2587 39.1132C30.6399 37.9827 32.2343 36.5743 32.8021 35.9835C35.3655 33.3156 36.9559 29.8074 37.3353 25.9843L37.4163 25.1674H34.513H31.6097L31.5687 23.8447C31.5247 22.4228 31.4179 22.1449 30.7125 21.6183C30.3114 21.3189 29.3477 21.2357 28.8654 21.459ZM11.5547 46.7633C11.3674 46.9505 11.2576 47.1986 11.2576 47.4344C11.2576 47.6701 11.3674 47.9182 11.5547 48.1054L11.8517 48.4025H19.9707H28.0898L28.3868 48.1054C28.7799 47.7125 28.7799 47.1563 28.3868 46.7633L28.0898 46.4662H19.9707H11.8517L11.5547 46.7633ZM13.4909 50.6358C13.3036 50.8231 13.1939 51.0711 13.1939 51.3069C13.1939 51.5426 13.3036 51.7907 13.4909 51.9779L13.7879 52.275H19.9707H26.1536L26.4505 51.9779C26.6379 51.7907 26.7476 51.5426 26.7476 51.3069C26.7476 51.0711 26.6379 50.8231 26.4505 50.6358L26.1536 50.3387H19.9707H13.7879L13.4909 50.6358ZM15.2511 54.3766C15.2511 54.4674 15.4443 54.9279 15.6805 55.4C16.1912 56.4209 16.9138 57.1106 18.0345 57.6469C18.7441 57.9865 18.9335 58.0233 19.9707 58.0233C21.0104 58.0233 21.1977 57.9866 21.9288 57.6402C23.0231 57.1218 23.7493 56.4227 24.2656 55.3909C24.4992 54.9239 24.6904 54.4674 24.6904 54.3766C24.6904 54.2397 23.879 54.2113 19.9707 54.2113C16.0625 54.2113 15.2511 54.2397 15.2511 54.3766Z" fill="#111827"/>
</svg>
