<svg width="60" height="60" viewBox="0 0 67 60" fill="none" xmlns="http://www.w3.org/2000/svg">
<path fill-rule="evenodd" clip-rule="evenodd" d="M7.92409 2.02709V4.05418H9.3062H10.6883V2.02709V0H9.3062H7.92409V2.02709ZM1.68802 4.36967L0.954392 5.62057L1.72119 6.09473C3.79269 7.37622 4.43472 7.65946 4.61292 7.37124C4.70709 7.21921 5.03696 6.66692 5.346 6.14412L5.90805 5.19323L4.75077 4.5042C4.11426 4.12513 3.32978 3.65835 3.00747 3.46688L2.42164 3.11877L1.68802 4.36967ZM14.4661 4.17397C13.5539 4.71686 12.8238 5.23008 12.8437 5.31467C12.8634 5.39925 13.1789 5.97089 13.5447 6.58492L14.2097 7.70129L15.9521 6.68646L17.6945 5.67162L17.1133 4.63264C16.7937 4.061 16.4405 3.50208 16.3284 3.39022C16.1797 3.24187 15.6759 3.45398 14.4661 4.17397ZM18.0596 8.84015V10.3091L20.4633 10.3605L22.8671 10.4119L20.4465 13.7289C19.1151 15.5533 17.9903 17.0823 17.9468 17.1265C17.9033 17.1709 17.6317 16.9246 17.3433 16.579L16.8188 15.951L15.7347 16.7583C15.1383 17.2025 14.6187 17.5913 14.5798 17.6223C14.5411 17.6532 15.0534 18.4069 15.7184 19.2972L16.9277 20.9159L13.7039 20.9662C11.9309 20.994 9.07916 20.994 7.36682 20.9662L4.25321 20.9159L4.97633 19.67L5.69926 18.4242L5.01484 17.9932C4.63854 17.756 4.07003 17.4278 3.7516 17.2635L3.1724 16.9649L1.58629 19.7151C0.713721 21.2279 0 22.5499 0 22.6529C0 22.7561 7.21258 31.0733 16.028 41.1356C26.3937 52.9672 32.2805 59.5475 32.6911 59.7615C33.3018 60.0795 33.351 60.0795 33.9849 59.7615C34.4401 59.5329 39.6094 53.7646 50.7009 41.1081C65.0044 24.7865 66.7402 22.7403 66.5957 22.3719C66.5063 22.1445 64.526 18.6773 62.1949 14.6669L57.9564 7.37548L38.008 7.37346L18.0596 7.37124V8.84015ZM2.63964 10.9699L0.948496 11.9759L1.6261 13.1695C1.99871 13.8259 2.37188 14.3655 2.45518 14.3684C2.68663 14.3769 5.90824 12.4664 5.85314 12.3535C5.52972 11.6917 4.49296 9.95653 4.42275 9.95966C4.37207 9.96205 3.56971 10.4165 2.63964 10.9699ZM13.4732 11.1816L12.7294 12.4235L14.3892 13.3987C15.3022 13.9352 16.1104 14.3739 16.1854 14.3739C16.2602 14.3739 16.4755 14.1043 16.6634 13.775C16.8514 13.4457 17.1639 12.9104 17.3578 12.5857L17.7105 11.9952L17.0097 11.5596C16.6242 11.3198 15.8382 10.8575 15.2629 10.5319L14.2169 9.93976L13.4732 11.1816ZM35.6302 13.7372C34.2542 15.6169 33.0619 17.1302 32.9808 17.1004C32.8997 17.0705 32.0677 16.0509 31.1319 14.8346C30.1959 13.6184 29.0208 12.1051 28.5205 11.4715L27.6105 10.3197H32.8713H38.132L35.6302 13.7372ZM53.073 10.4078C53.073 10.5508 48.4737 16.9273 48.2876 17.0423C48.1528 17.1256 43.6138 11.4966 43.0523 10.5501C42.9445 10.368 43.9815 10.3197 47.9944 10.3197C50.7875 10.3197 53.073 10.3594 53.073 10.4078ZM59.497 15.8552L62.4363 20.9159L59.1367 20.9662C57.3219 20.9937 54.3397 20.9937 52.5094 20.9662L49.1817 20.9159L52.8319 15.8205C54.8395 13.018 56.4991 10.7406 56.5199 10.7598C56.5406 10.7788 57.8803 13.0718 59.497 15.8552ZM28.7396 16.5075C30.5864 18.8975 32.0614 20.8886 32.0174 20.9327C31.9733 20.9767 28.9845 20.9909 25.3755 20.9644L18.8136 20.9159L21.984 16.5464C23.7277 14.1434 25.2056 12.1738 25.2681 12.1697C25.3305 12.1659 26.8927 14.1178 28.7396 16.5075ZM43.9835 16.5508L47.3328 20.9159L44.0415 20.966C42.2313 20.9937 39.2277 20.9937 37.3671 20.966L33.9838 20.9159L37.1852 16.5392C38.946 14.1322 40.4423 12.1677 40.5103 12.1742C40.5783 12.1804 42.1412 14.1498 43.9835 16.5508ZM7.92409 15.6639V17.691H9.3062H10.6883V15.6639V13.6368H9.3062H7.92409V15.6639ZM61.5143 24.2932C61.0542 24.9364 38.0885 51.0497 38.0325 50.9935C38.0013 50.9624 40.4164 45.3473 43.3991 38.5157C46.3819 31.684 48.8017 26.0736 48.7763 26.0483C48.751 26.0229 48.1525 25.7557 47.4463 25.4542C46.543 25.0687 46.1309 24.9703 46.0559 25.1225C45.9973 25.2414 43.468 31.0399 40.4353 38.0082L34.9213 50.6779L34.8739 38.0542L34.8265 25.4308H33.3549H31.883L31.8359 38.4488L31.7885 51.467L26.3666 39.1398C23.3847 32.3601 20.7539 26.38 20.5204 25.851L20.0962 24.889L18.852 25.4474C18.1675 25.7544 17.5765 26.0365 17.539 26.0743C17.5012 26.1121 19.8478 31.5467 22.7537 38.1512C25.6599 44.7556 28.0107 50.1831 27.9779 50.2122C27.9214 50.2625 6.28233 25.6652 5.36664 24.5096L4.92841 23.9565H33.3418C60.8214 23.9565 61.7471 23.9676 61.5143 24.2932Z" fill="#111827"/>
</svg>
