<svg width="80" height="80" viewBox="0 0 102 100" fill="none" xmlns="http://www.w3.org/2000/svg">
<path fill-rule="evenodd" clip-rule="evenodd" d="M63.5616 10.1016C63.1314 10.2005 54.1119 14.3244 43.5184 19.2656L24.2573 28.2501L22.5952 28.37C21.6811 28.4359 20.6194 28.5804 20.236 28.6908C19.2221 28.9829 17.918 30.1931 17.3887 31.333L16.9284 32.3242L16.9264 42.2561L16.9245 52.1879L15.5068 52.9691C12.1526 54.8177 9.39877 58.3064 8.12559 62.32C7.44295 64.4724 7.35515 68.1056 7.92594 70.5823C9.38587 76.9171 14.5809 81.7586 21.0309 82.7959C21.8754 82.9318 33.0282 83.0002 54.2733 83L86.2446 82.9994L87.2223 82.5395C88.3651 82.0017 89.149 81.2604 89.7353 80.1631C90.1369 79.4111 90.1582 79.0905 90.2163 72.8804L90.2769 66.3845L91.4459 66.2996C92.316 66.2365 92.7255 66.1039 93.0474 65.7814C93.4795 65.3482 93.4797 65.3458 93.5358 56.0901C93.5667 50.998 93.5437 46.6359 93.4846 46.3963C93.2766 45.5523 92.6211 45.1655 91.3993 45.1655H90.2728L90.2141 38.6468C90.1557 32.1493 90.1539 32.125 89.6707 31.1765C88.6478 29.1686 87.2239 28.4763 83.8471 28.3451L81.4493 28.252L81.1679 27.2494C81.0132 26.6979 80.574 25.0742 80.192 23.6411C79.8097 22.2082 79.3787 20.7525 79.234 20.4063C78.2438 18.037 75.653 17.0138 72.6635 17.8115C72.0769 17.968 71.5845 18.0772 71.5695 18.0542C71.5542 18.0313 70.8839 16.645 70.0798 14.9737C68.5624 11.8198 67.8622 10.9166 66.509 10.3679C65.6144 10.005 64.4423 9.89912 63.5616 10.1016ZM48.0159 20.6837C39.2506 24.7866 32.0423 28.1801 31.9975 28.2244C31.9528 28.2689 42.2982 28.3052 54.9872 28.3052H78.0584L77.4383 25.9035C76.3024 21.503 76.2197 21.281 75.5926 20.9558C75.2778 20.7927 74.8906 20.6592 74.732 20.6592C74.5734 20.6592 69.8393 21.8943 64.2118 23.4039C58.5842 24.9133 53.7891 26.1484 53.556 26.1486C52.8628 26.1486 52.5161 25.9384 52.2005 25.3264C51.8231 24.5949 52.0018 23.6882 52.6008 23.2947C52.8452 23.1341 56.4512 22.0872 60.6139 20.9685C64.7767 19.8497 68.2214 18.8953 68.2687 18.8479C68.4103 18.7059 66.1991 14.1277 65.7583 13.6504C65.4785 13.3473 65.1324 13.2114 64.6519 13.2163C64.1509 13.2214 59.4337 15.3389 48.0159 20.6837ZM21.2241 31.8494C20.1472 32.2489 20.1556 32.1752 20.0944 41.8152C20.0633 46.7118 20.1073 50.7871 20.1922 50.8714C20.2771 50.9559 21.0403 50.9316 21.8883 50.8177C24.5469 50.4603 27.9596 51.0843 30.6407 52.418C35.2895 54.7305 38.4219 58.9777 39.3318 64.2028C39.6939 66.2818 39.6104 68.8583 39.1229 70.6521C38.9618 71.2452 38.8288 71.7439 38.8277 71.7604C38.8263 71.7771 39.6523 71.8212 40.6628 71.8584C42.1009 71.9118 42.586 72.0041 42.894 72.2841C43.7313 73.0443 43.579 74.5 42.6159 74.9398C42.3392 75.0662 41.0938 75.1613 39.7133 75.1613H37.2954L36.4018 76.4168C35.9102 77.1073 35.005 78.1219 34.39 78.6714L33.2721 79.6705H59.585H85.8979L86.4136 79.1537C86.893 78.673 86.929 78.5151 86.929 76.8991V75.1613H71.492H56.055L55.5161 74.6967C54.8192 74.0956 54.7709 73.0067 55.4127 72.3633L55.8484 71.9265L71.3886 71.8729L86.929 71.8192V68.9882V66.1571L77.3963 66.101L67.8635 66.0449L66.8156 65.4631C65.5043 64.7347 64.5616 63.6445 64.044 62.2574C63.6676 61.2491 63.6466 60.829 63.7002 55.3802C63.7552 49.7704 63.7722 49.5459 64.2094 48.6562C64.7865 47.4815 65.9693 46.2956 67.141 45.717C68.0569 45.2647 68.0818 45.2634 77.494 45.209L86.929 45.1547V38.9954V32.8363L86.4572 32.2862L85.9851 31.736L53.8503 31.7015C34.4383 31.6808 21.5207 31.7394 21.2241 31.8494ZM68.2163 48.8819C66.9005 49.6863 66.8858 49.7612 66.8858 55.6803C66.8858 60.7645 66.905 61.0425 67.289 61.5583C67.5108 61.8561 67.9351 62.2815 68.2319 62.5039C68.7597 62.8991 69.0123 62.9093 79.5126 62.962L90.2533 63.0159V55.7572V48.4984L79.5472 48.4992C69.2804 48.4998 68.8156 48.5154 68.2163 48.8819ZM21.422 54.126C16.9829 54.8953 13.0961 58.148 11.4979 62.4307C8.56185 70.2981 14.1614 79.0115 22.5297 79.5971C28.5388 80.0179 33.8006 76.3986 35.8192 70.4561C36.1045 69.6162 36.1845 68.8143 36.1812 66.8291C36.1769 64.2746 36.031 63.4763 35.2228 61.5838C33.7527 58.1415 29.9602 55.0679 26.2128 54.2817C24.93 54.0127 22.5266 53.9345 21.422 54.126ZM71.5339 54.1145C70.9336 54.2462 70.3078 55.1 70.3078 55.7876C70.3078 56.132 70.4981 56.549 70.7879 56.8394C71.2306 57.2834 71.4126 57.3207 73.1432 57.3207C74.8738 57.3207 75.0558 57.2834 75.4985 56.8394C76.1495 56.1869 76.1464 55.1945 75.4917 54.5779C75.0806 54.1905 74.7688 54.1115 73.4874 54.069C72.6528 54.0413 71.7736 54.0619 71.5339 54.1145ZM19.7622 58.3341C19.2634 58.7273 19.2311 58.8371 19.3302 59.7993C19.4272 60.7424 19.3862 60.8945 18.8906 61.4262C17.0379 63.4147 17.3856 66.6982 19.5977 68.1046C20.842 68.8957 21.9288 69.0239 23.5403 68.5693C24.2573 68.367 25.02 68.2252 25.2351 68.2542C26.0644 68.3662 26.4093 69.5525 25.7728 70.1032C25.5845 70.2661 24.9767 70.559 24.4222 70.7539L23.4138 71.1085L22.9321 70.547C22.2642 69.7683 21.1746 69.7589 20.5166 70.5259C19.9403 71.1977 19.9364 71.7085 20.5004 72.7067C21.087 73.7454 22.2077 74.3696 23.4926 74.374C24.368 74.3767 24.5153 74.4373 24.7149 74.8768C24.8399 75.1515 25.2218 75.4944 25.5638 75.6385C26.8886 76.197 28.0413 75.0958 27.6436 73.6515C27.4779 73.0504 27.5174 72.9345 28.0605 72.426C29.7642 70.8301 29.8698 68.2342 28.3018 66.4906C26.9873 65.0286 25.4071 64.6491 23.2517 65.2772C22.2759 65.5617 22.1455 65.5613 21.7061 65.2727C21.376 65.0559 21.2264 64.7769 21.2264 64.3785C21.2264 63.7206 21.6564 63.3681 22.9067 63.0012C23.6603 62.7801 23.737 62.7964 24.2178 63.2785C25.2358 64.2991 26.8972 63.617 26.8972 62.1784C26.8972 60.6624 25.3021 59.3869 23.5583 59.5086C22.6689 59.5706 22.586 59.5368 22.376 59.0283C21.9083 57.8953 20.719 57.5795 19.7622 58.3341ZM47.0382 71.9668C45.8479 72.4032 45.4859 73.8189 46.345 74.68C46.7783 75.1146 46.984 75.1613 48.4695 75.1613C49.8117 75.1613 50.2044 75.0899 50.6056 74.7737C51.5748 74.0095 51.3196 72.4568 50.1582 72.0508C49.51 71.8243 47.5696 71.7722 47.0382 71.9668Z" fill="#5AE489"/>
<g clip-path="url(#clip0_529_7330)">
<path fill-rule="evenodd" clip-rule="evenodd" d="M63.5616 10.1016C63.1314 10.2005 54.1119 14.3244 43.5184 19.2656L24.2573 28.2501L22.5952 28.3701C21.6811 28.4359 20.6194 28.5804 20.236 28.6908C19.2221 28.9829 17.918 30.1931 17.3887 31.333L16.9284 32.3242L16.9264 42.2561L16.9245 52.1879L15.5068 52.9691C12.1526 54.8177 9.39877 58.3064 8.12559 62.32C7.44295 64.4724 7.35515 68.1056 7.92594 70.5823C9.38587 76.9171 14.5809 81.7586 21.0309 82.7959C21.8754 82.9318 33.0282 83.0002 54.2733 83L86.2446 82.9994L87.2223 82.5395C88.3651 82.0017 89.149 81.2604 89.7353 80.1631C90.1369 79.4111 90.1582 79.0905 90.2163 72.8804L90.2769 66.3845L91.4459 66.2996C92.316 66.2365 92.7255 66.104 93.0474 65.7814C93.4795 65.3482 93.4797 65.3458 93.5358 56.0901C93.5667 50.998 93.5437 46.6359 93.4846 46.3963C93.2766 45.5523 92.6211 45.1655 91.3993 45.1655H90.2728L90.2141 38.6468C90.1557 32.1493 90.1539 32.125 89.6707 31.1765C88.6478 29.1686 87.2239 28.4763 83.8471 28.3452L81.4493 28.252L81.1679 27.2494C81.0132 26.6979 80.574 25.0742 80.1919 23.6411C79.8097 22.2082 79.3787 20.7525 79.234 20.4063C78.2438 18.037 75.653 17.0138 72.6635 17.8115C72.0769 17.968 71.5845 18.0772 71.5695 18.0542C71.5542 18.0313 70.8839 16.645 70.0798 14.9737C68.5624 11.8198 67.8622 10.9166 66.509 10.3679C65.6144 10.005 64.4423 9.89912 63.5616 10.1016ZM48.0159 20.6837C39.2506 24.7866 32.0423 28.1801 31.9975 28.2244C31.9528 28.2689 42.2982 28.3052 54.9872 28.3052H78.0584L77.4383 25.9035C76.3024 21.503 76.2197 21.281 75.5926 20.9558C75.2777 20.7927 74.8906 20.6592 74.732 20.6592C74.5734 20.6592 69.8393 21.8943 64.2118 23.4039C58.5842 24.9133 53.7891 26.1484 53.556 26.1486C52.8628 26.1486 52.5161 25.9384 52.2005 25.3264C51.8231 24.5949 52.0018 23.6882 52.6008 23.2947C52.8452 23.1341 56.4512 22.0872 60.6139 20.9685C64.7767 19.8497 68.2214 18.8953 68.2687 18.8479C68.4103 18.7059 66.1991 14.1277 65.7583 13.6504C65.4785 13.3473 65.1324 13.2114 64.6519 13.2163C64.1509 13.2214 59.4337 15.3389 48.0159 20.6837ZM21.2241 31.8494C20.1472 32.2489 20.1556 32.1752 20.0944 41.8152C20.0633 46.7118 20.1073 50.7871 20.1922 50.8714C20.2771 50.9559 21.0403 50.9316 21.8883 50.8177C24.5469 50.4603 27.9596 51.0843 30.6407 52.418C35.2895 54.7305 38.4219 58.9777 39.3318 64.2028C39.6939 66.2818 39.6104 68.8583 39.1229 70.6521C38.9618 71.2452 38.8288 71.7439 38.8277 71.7604C38.8263 71.7771 39.6523 71.8212 40.6628 71.8584C42.1009 71.9118 42.586 72.0041 42.894 72.2841C43.7313 73.0443 43.579 74.5 42.6159 74.9398C42.3392 75.0662 41.0938 75.1613 39.7133 75.1613H37.2954L36.4018 76.4168C35.9102 77.1073 35.005 78.1219 34.39 78.6714L33.2721 79.6705H59.585H85.8979L86.4136 79.1537C86.893 78.673 86.929 78.5151 86.929 76.8991V75.1613H71.492H56.055L55.5161 74.6967C54.8192 74.0956 54.7709 73.0067 55.4127 72.3633L55.8484 71.9265L71.3886 71.8729L86.929 71.8192V68.9882V66.1571L77.3963 66.101L67.8635 66.0449L66.8156 65.4631C65.5043 64.7347 64.5616 63.6445 64.044 62.2574C63.6676 61.2491 63.6466 60.829 63.7002 55.3802C63.7552 49.7704 63.7722 49.5459 64.2094 48.6562C64.7865 47.4815 65.9693 46.2956 67.141 45.717C68.0569 45.2647 68.0818 45.2634 77.494 45.2091L86.929 45.1547V38.9954V32.8363L86.4572 32.2862L85.9851 31.736L53.8503 31.7015C34.4383 31.6808 21.5207 31.7394 21.2241 31.8494ZM68.2163 48.8819C66.9005 49.6863 66.8858 49.7612 66.8858 55.6803C66.8858 60.7645 66.905 61.0425 67.289 61.5583C67.5108 61.8561 67.9351 62.2815 68.2319 62.5039C68.7597 62.8991 69.0123 62.9093 79.5126 62.962L90.2533 63.0159V55.7572V48.4984L79.5472 48.4992C69.2804 48.4998 68.8156 48.5154 68.2163 48.8819ZM21.422 54.126C16.9829 54.8953 13.0961 58.148 11.4979 62.4307C8.56185 70.2981 14.1614 79.0115 22.5297 79.5971C28.5388 80.0179 33.8006 76.3986 35.8192 70.4561C36.1045 69.6162 36.1845 68.8144 36.1812 66.8291C36.1769 64.2746 36.031 63.4763 35.2228 61.5838C33.7527 58.1415 29.9602 55.0679 26.2128 54.2817C24.93 54.0127 22.5266 53.9345 21.422 54.126ZM71.5339 54.1145C70.9336 54.2462 70.3078 55.1 70.3078 55.7876C70.3078 56.132 70.4981 56.549 70.7879 56.8394C71.2306 57.2834 71.4126 57.3207 73.1432 57.3207C74.8738 57.3207 75.0558 57.2834 75.4985 56.8394C76.1495 56.1869 76.1464 55.1945 75.4917 54.5779C75.0806 54.1905 74.7687 54.1115 73.4874 54.069C72.6528 54.0413 71.7736 54.0619 71.5339 54.1145ZM19.7622 58.3341C19.2634 58.7273 19.2311 58.8371 19.3302 59.7994C19.4272 60.7424 19.3862 60.8945 18.8906 61.4262C17.0379 63.4147 17.3856 66.6982 19.5977 68.1046C20.842 68.8957 21.9288 69.0239 23.5403 68.5693C24.2573 68.367 25.02 68.2252 25.2351 68.2542C26.0644 68.3662 26.4093 69.5525 25.7728 70.1032C25.5845 70.2661 24.9767 70.559 24.4222 70.7539L23.4138 71.1085L22.9321 70.547C22.2642 69.7683 21.1746 69.7589 20.5166 70.5259C19.9403 71.1977 19.9364 71.7085 20.5004 72.7067C21.087 73.7454 22.2077 74.3697 23.4926 74.374C24.368 74.3767 24.5153 74.4373 24.7149 74.8768C24.8399 75.1515 25.2218 75.4944 25.5638 75.6385C26.8886 76.197 28.0413 75.0958 27.6436 73.6515C27.4779 73.0504 27.5174 72.9346 28.0605 72.426C29.7642 70.8301 29.8698 68.2342 28.3018 66.4906C26.9873 65.0286 25.4071 64.6491 23.2517 65.2772C22.2759 65.5617 22.1455 65.5613 21.7061 65.2727C21.376 65.0559 21.2264 64.7769 21.2264 64.3785C21.2264 63.7206 21.6564 63.3681 22.9067 63.0013C23.6603 62.7801 23.737 62.7964 24.2178 63.2785C25.2358 64.2991 26.8972 63.617 26.8972 62.1784C26.8972 60.6624 25.3021 59.3869 23.5583 59.5086C22.6689 59.5706 22.586 59.5368 22.376 59.0283C21.9083 57.8953 20.719 57.5795 19.7622 58.3341ZM47.0382 71.9668C45.8479 72.4033 45.4859 73.8189 46.3449 74.68C46.7783 75.1146 46.984 75.1613 48.4695 75.1613C49.8117 75.1613 50.2044 75.0899 50.6056 74.7737C51.5748 74.0095 51.3196 72.4568 50.1582 72.0508C49.51 71.8243 47.5696 71.7722 47.0382 71.9668Z" fill="#FFB64B"/>
</g>
<defs>
<clipPath id="clip0_529_7330">
<rect x="6" y="50" width="34" height="33" rx="16.5" fill="white"/>
</clipPath>
</defs>
</svg>
