<svg width="66" height="100" viewBox="0 0 66 100" fill="none" xmlns="http://www.w3.org/2000/svg">
<path fill-rule="evenodd" clip-rule="evenodd" d="M19.9215 0.45237C19.689 0.709409 19.5006 1.19793 19.5029 1.53827C19.5098 2.48057 24.263 21.204 24.5745 21.5154C24.7244 21.6654 25.2122 21.7881 25.6583 21.7881C26.5467 21.7881 27.1684 21.1761 27.1566 20.3128C27.1528 20.0233 26.0681 15.4791 24.7462 10.2142C23.0297 3.37739 22.2146 0.54793 21.894 0.313376C21.2567 -0.15241 20.4151 -0.093133 19.9215 0.45237ZM43.9062 8.75373C43.5475 9.30102 43.5077 10.587 43.5713 19.5202C43.6408 29.223 43.6656 29.6811 44.1398 30.0276C44.7724 30.4901 45.5813 30.4901 46.214 30.0276C46.6884 29.6809 46.7127 29.2286 46.7745 19.6158C46.8471 8.3462 46.8468 8.34416 45.2502 8.21053C44.4913 8.14716 44.2361 8.25039 43.9062 8.75373ZM33.4413 9.64468C33.5969 10.818 33.5634 10.9084 32.6883 11.6767C31.6755 12.5659 31.7209 12.6658 33.2471 12.9098C34.2006 13.0623 34.3394 13.1827 34.7247 14.1916C34.9585 14.8041 35.2518 15.242 35.3762 15.1651C35.5009 15.0882 35.8333 14.5731 36.1154 14.0205C36.5965 13.0771 36.6977 13.0158 37.7723 13.0158C38.4019 13.0158 38.917 12.9351 38.917 12.8365C38.917 12.7376 38.5603 12.2889 38.1244 11.8392C37.3689 11.0597 37.3436 10.9667 37.5825 9.84678C37.8623 8.53502 37.7897 8.48699 36.4772 9.11297C35.5793 9.54095 35.5252 9.53737 34.5655 8.98522C34.0223 8.67248 33.5105 8.41672 33.428 8.41672C33.3457 8.41672 33.3516 8.96938 33.4413 9.64468ZM11.4775 10.865C11.3922 11.0873 11.3224 11.6011 11.3224 12.0071C11.3224 12.6001 11.1221 12.8594 10.3025 13.3275C9.74137 13.6479 9.28146 13.9788 9.28044 14.0629C9.27916 14.1469 9.73013 14.4196 10.2823 14.6684C11.1579 15.0634 11.324 15.2783 11.5815 16.3522L11.8769 17.5832L12.6741 16.6754C13.4288 15.8156 13.5359 15.7753 14.6964 15.9127C15.3702 15.9924 15.9215 16.0011 15.9215 15.9319C15.9215 15.8627 15.6893 15.3506 15.4054 14.7941L14.889 13.7823L15.423 12.7355C15.7169 12.1599 15.9172 11.6489 15.8686 11.6001C15.8198 11.5515 15.2856 11.6225 14.6811 11.7585C13.6626 11.9871 13.5111 11.9488 12.6074 11.2332C11.7918 10.5872 11.6071 10.5272 11.4775 10.865ZM2.71575 20.9556C2.1102 21.1807 1.61324 21.9266 1.61324 22.6103C1.61324 23.1596 15.5595 37.1766 16.4949 37.5676C17.5126 37.9927 18.4766 37.3253 18.4766 36.1952C18.4766 35.453 17.7433 34.6392 11.2586 28.1864C7.28878 24.2358 3.86807 20.9462 3.65728 20.8759C3.44649 20.8057 3.02286 20.8414 2.71575 20.9556ZM29.9122 30.498L29.2328 31.8833L27.7512 32.063C26.9364 32.1616 26.1721 32.2993 26.0533 32.3685C25.9345 32.438 26.3745 33.04 27.0309 33.7066L28.2246 34.9187L27.9505 36.4025C27.7995 37.2185 27.7197 37.9299 27.7729 37.983C27.826 38.0362 28.5154 37.7628 29.3051 37.3754L30.7408 36.6712L32.1765 37.3754C32.9663 37.7628 33.6561 38.0359 33.7095 37.9822C33.7632 37.9288 33.6745 37.2262 33.5128 36.4211L33.219 34.9573L34.4316 33.726C35.0987 33.0487 35.5471 32.438 35.4283 32.3685C35.3095 32.2993 34.5453 32.1616 33.7305 32.063L32.2488 31.8833L31.5694 30.498C31.1956 29.7361 30.8228 29.1126 30.7408 29.1126C30.6588 29.1126 30.286 29.7361 29.9122 30.498ZM51.6922 32.1652C49.9065 32.5155 48.8395 33.3149 45.2525 36.9924C31.0523 51.5498 23.7395 57.7292 20.7125 57.7292C19.5464 57.7292 18.982 57.2629 17.7124 55.25C14.3106 49.8574 12.4145 47.6736 9.98564 46.3516C5.92489 44.1415 0.833184 47.0563 0.407768 51.8342C0.242967 53.6858 0.882242 55.5147 2.56806 58.0128C4.11975 60.3124 5.49462 63.0008 6.08203 64.8839C6.38582 65.8576 6.58384 67.7782 6.72718 71.1432C6.96735 76.7766 7.57622 80.2218 8.93397 83.6252C12.1692 91.7364 18.0284 96.948 26.5582 99.3017C28.8148 99.9244 29.5101 99.9979 33.1681 100C38.6485 100.003 41.8195 99.3336 46.552 97.1736C48.6954 96.1953 52.0073 94.0194 53.7968 92.414C55.9911 90.4456 64.4586 80.8757 65.0437 79.7027C65.4849 78.8181 65.6173 78.1109 65.6173 76.6366C65.6173 74.9865 65.5107 74.5271 64.8508 73.3306C64.0605 71.8975 62.5522 70.6072 61.0777 70.1026C60.3069 69.8389 60.2795 69.7801 60.3457 68.5304C60.4512 66.5459 59.9267 65.1923 58.4685 63.6853C57.5413 62.7272 56.8652 62.2741 56.0297 62.0508L54.8735 61.7422L54.9732 59.9777C55.1477 56.8935 53.6014 54.3054 50.8864 53.1375L49.5813 52.5762L54.2013 47.9316C59.4481 42.6567 59.9655 41.8611 59.9576 39.0773C59.952 37.0696 59.4905 35.9104 58.0934 34.395C56.5062 32.6728 53.84 31.7441 51.6922 32.1652ZM51.3241 35.548C51.0514 35.7062 47.1997 39.4739 42.7646 43.9207C32.0786 54.6353 26.272 59.4452 22.767 60.4864C21.4026 60.8916 21.3198 60.9608 21.4829 61.56C21.8237 62.814 21.6249 65.5058 21.0799 67.0181C20.0326 69.9224 18.6651 70.9485 17.4546 69.738C16.781 69.0644 16.8048 68.7997 17.7098 66.8865C18.3079 65.6223 18.4763 64.9143 18.4763 63.6615C18.4766 61.7332 18.111 60.7787 16.7857 59.2474C16.2358 58.612 15.2204 57.1768 14.5293 56.0582C11.939 51.8656 9.56788 49.2871 7.87235 48.819C6.13568 48.3394 3.93911 49.7324 3.53566 51.5695C3.28374 52.7157 3.77022 54.089 5.21459 56.3114C7.1876 59.3473 8.15136 61.2158 8.91021 63.4781C9.51219 65.2735 9.6218 66.1236 9.80934 70.4646C10.1175 77.5922 10.8201 80.8499 12.926 84.9114C13.7702 86.5395 14.2495 87.1317 15.4233 87.9958C18.1416 89.997 21.5255 90.4671 24.1276 89.2049C25.5771 88.5017 27.7164 86.6639 29.1662 84.8766C30.2945 83.4854 30.9613 83.2335 31.8099 83.8786C32.746 84.5902 32.6331 85.3907 31.3563 87.0891C28.9528 90.2867 25.2927 92.6504 22.3288 92.9192C21.467 92.9974 20.7079 93.1481 20.6422 93.2541C20.47 93.5329 24.4273 95.4142 26.5091 96.0432C33.3825 98.1205 42.2631 96.6472 48.7256 92.3578C50.3899 91.253 53.2881 88.6126 54.7407 86.878L55.7785 85.6383L54.3848 84.9566C52.2498 83.9118 50.8238 81.8392 50.602 79.4574C50.4983 78.3459 50.4962 78.3439 49.115 77.9915C45.8006 77.1461 43.7716 74.5427 43.7716 71.1351V69.786L42.6085 69.3897C39.8271 68.442 38.1426 66.2122 37.9509 63.2241C37.7445 60.0096 37.8597 59.8522 47.4703 50.1997C52.0806 45.5697 56.066 41.4316 56.3266 41.0041C57.355 39.3175 56.7014 36.821 54.9522 35.7545C54.0263 35.1898 52.1276 35.0817 51.3241 35.548ZM46.4544 55.9798C45.6542 56.4167 41.7319 60.3343 41.3259 61.1019C40.4186 62.8176 41.295 65.2712 43.1328 66.1609C45.0361 67.0822 45.5706 66.8878 48.8595 64.0757C51.2863 62.0007 51.7398 61.3651 51.8698 59.856C52.0719 57.5118 50.4295 55.6778 48.1412 55.6928C47.4946 55.6972 46.7355 55.8262 46.4544 55.9798ZM52.5799 65.2117C50.8547 66.2462 47.3614 69.3337 47.1144 70.0428C46.4672 71.899 47.248 73.8286 48.9606 74.6061C50.9321 75.5011 51.2295 75.3803 54.1627 72.4941C57.1871 69.5177 57.645 68.6388 57.0229 67.0038C56.3631 65.2707 54.0426 64.3348 52.5799 65.2117ZM56.0982 74.927C53.9029 77.1762 53.5868 77.8129 53.8165 79.5258C53.9266 80.346 54.1998 80.8192 54.988 81.5543C55.9042 82.409 56.1613 82.5132 57.3509 82.5132C58.6568 82.5132 58.7181 82.479 60.1942 80.9163C62.0877 78.9119 62.7819 77.4905 62.5469 76.0995C62.2538 74.3649 60.5284 72.804 58.9044 72.804C58.3213 72.804 57.7447 73.2404 56.0982 74.927Z" fill="#FF6330"/>
</svg>
