<svg width="81" height="80" viewBox="0 0 81 80" fill="none" xmlns="http://www.w3.org/2000/svg">
<rect x="0.5" width="80" height="80" rx="40" fill="#FFF7F4"/>
<g clip-path="url(#clip0_303_1756)">
<rect x="10.5" y="10" width="60" height="60" rx="30" fill="#FF6330" fill-opacity="0.2"/>
<path d="M50.2493 32.215C50.5822 35.2115 47.5682 36.1987 47.0308 37.5422C46.5868 38.652 48.2516 39.2735 48.9175 39.5399C49.5834 39.8062 53.5 42.5 53.5 51.5C53.5 58.8617 55.5 70.3931 55.5 70.3931H28.0527C28.0527 70.3931 30.0788 62.8136 29 58.5C26.499 48.5 28.0527 47.3087 28.0527 47.3087C28.0527 47.3087 23.1693 48.1966 21.2827 43.8682C20.6539 42.4254 18.1154 35.9374 20.5058 33.5468C21.7265 32.326 22.9808 39.5629 26.499 40.8717C27.8308 41.3671 32.825 40.7607 34.9337 39.5399C35.5746 39.1688 36.0144 38.4435 35.9325 37.5422C35.8215 36.3214 31.9371 36.5434 31.9371 32.7699C31.9371 30.104 34.3787 26.111 41.1487 26C46.5868 26 49.9163 29.2184 50.2493 32.215Z" fill="#FF6330"/>
<path d="M49.6937 49.9721C49.3362 55.6689 48.8063 59.8496 46.2537 64.1779C42.3147 69.8463 42.1472 51.9698 42.8128 47.6415C43.1208 45.6386 44.2268 43.7571 46.2532 43.7571C50.8038 43.7571 49.8052 48.1964 49.6937 49.9721Z" fill="url(#paint0_linear_303_1756)"/>
<path d="M40.039 36.8762C40.8157 36.9872 42.9243 35.7664 43.5903 35.1005C45.4804 33.2106 42.4442 33.982 40.7049 33.8797C38.8181 33.7687 37.1535 33.1627 36.9315 33.4357C35.7894 34.8406 39.2623 36.7652 40.039 36.8762Z" fill="white"/>
</g>
<defs>
<linearGradient id="paint0_linear_303_1756" x1="46.1881" y1="43.7571" x2="46.1881" y2="65.2775" gradientUnits="userSpaceOnUse">
<stop stop-color="#FF6330"/>
<stop offset="1" stop-color="#C74E27"/>
</linearGradient>
<clipPath id="clip0_303_1756">
<rect x="10.5" y="10" width="60" height="60" rx="30" fill="white"/>
</clipPath>
</defs>
</svg>
